<?xml version="1.0" encoding="utf-8"?>
<!-- Generator: Adobe Illustrator 23.0.2, SVG Export Plug-In . SVG Version: 6.00 Build 0)  -->
<svg version="1.1" id="Layer_1" xmlns="http://www.w3.org/2000/svg" xmlns:xlink="http://www.w3.org/1999/xlink" x="0px" y="0px"
	 viewBox="0 0 200 200" style="enable-background:new 0 0 200 200;" xml:space="preserve">
<style type="text/css">
	.st0{fill:url(#SVGID_1_);}
	.st1{fill:url(#SVGID_2_);}
	.st2{fill:url(#SVGID_3_);}
	.st3{fill:url(#SVGID_4_);}
	.st4{fill:url(#SVGID_5_);}
	.st5{fill:url(#SVGID_6_);}
	.st6{fill:url(#SVGID_7_);}
	.st7{fill:url(#SVGID_8_);}
	.st8{fill:url(#SVGID_9_);}
	.st9{fill:url(#SVGID_10_);}
	.st10{opacity:0.3;}
	.st11{fill:url(#SVGID_11_);}
	.st12{fill:url(#SVGID_12_);}
	.st13{fill:url(#SVGID_13_);}
	.st14{fill:url(#SVGID_14_);}
	.st15{fill:url(#SVGID_15_);}
	.st16{fill:url(#SVGID_16_);}
	.st17{fill:url(#SVGID_17_);}
	.st18{fill:url(#SVGID_18_);}
	.st19{fill:none;}
</style>
<g>
	<g>
		
			<linearGradient id="SVGID_1_" gradientUnits="userSpaceOnUse" x1="34.902" y1="124.9359" x2="34.902" y2="172.0487" gradientTransform="matrix(1 0 0 -1 0 202)">
			<stop  offset="0" style="stop-color:#0E5656"/>
			<stop  offset="1" style="stop-color:#5D79BC"/>
		</linearGradient>
		<path class="st0" d="M32.07,29.95L3.81,69.18l62.18,7.89L32.07,29.95z"/>
		
			<linearGradient id="SVGID_2_" gradientUnits="userSpaceOnUse" x1="164.938" y1="124.9359" x2="164.938" y2="172.0487" gradientTransform="matrix(1 0 0 -1 0 202)">
			<stop  offset="0" style="stop-color:#34130E"/>
			<stop  offset="1" style="stop-color:#9C1C1F"/>
		</linearGradient>
		<path class="st1" d="M167.78,29.95l28.25,39.22l-62.18,7.89L167.78,29.95z"/>
		
			<linearGradient id="SVGID_3_" gradientUnits="userSpaceOnUse" x1="99.92" y1="124.9359" x2="99.92" y2="164.4422" gradientTransform="matrix(1 0 0 -1 0 202)">
			<stop  offset="0" style="stop-color:#E4D7EA"/>
			<stop  offset="1" style="stop-color:#D7E36D"/>
		</linearGradient>
		<path class="st2" d="M99.92,37.56L65.99,77.06h33.93h33.93L99.92,37.56z"/>
		
			<linearGradient id="SVGID_4_" gradientUnits="userSpaceOnUse" x1="99.92" y1="24.5481" x2="99.92" y2="124.9359" gradientTransform="matrix(1 0 0 -1 0 202)">
			<stop  offset="0" style="stop-color:#A64198"/>
			<stop  offset="1" style="stop-color:#DFA7CC"/>
		</linearGradient>
		<path class="st3" d="M99.92,177.45l33.93-100.39H99.92H65.99L99.92,177.45z"/>
		
			<linearGradient id="SVGID_5_" gradientUnits="userSpaceOnUse" x1="47.24" y1="135.7617" x2="72.829" y2="180.0832" gradientTransform="matrix(1 0 0 -1 0 202)">
			<stop  offset="0" style="stop-color:#026674"/>
			<stop  offset="1" style="stop-color:#85C441"/>
		</linearGradient>
		<path class="st4" d="M32.07,29.95l33.92,47.11l33.93-39.51L32.07,29.95z"/>
		
			<linearGradient id="SVGID_6_" gradientUnits="userSpaceOnUse" x1="155.1756" y1="143.4746" x2="121.0111" y2="182.7764" gradientTransform="matrix(1 0 0 -1 0 202)">
			<stop  offset="0" style="stop-color:#DD3326"/>
			<stop  offset="1" style="stop-color:#D2D028"/>
		</linearGradient>
		<path class="st5" d="M99.92,37.56l33.93,39.51l33.93-47.11L99.92,37.56z"/>
		
			<linearGradient id="SVGID_7_" gradientUnits="userSpaceOnUse" x1="65.9945" y1="164.4422" x2="65.9945" y2="179.6551" gradientTransform="matrix(1 0 0 -1 0 202)">
			<stop  offset="0" style="stop-color:#55B948"/>
			<stop  offset="1" style="stop-color:#D7E36D"/>
		</linearGradient>
		<path class="st6" d="M32.07,29.95l67.85,7.61V22.34L32.07,29.95z"/>
		
			<linearGradient id="SVGID_8_" gradientUnits="userSpaceOnUse" x1="133.8492" y1="164.4422" x2="133.8492" y2="179.6551" gradientTransform="matrix(1 0 0 -1 0 202)">
			<stop  offset="0" style="stop-color:#85C441"/>
			<stop  offset="1" style="stop-color:#D2D028"/>
		</linearGradient>
		<path class="st7" d="M167.78,29.95l-67.86-7.61v15.21L167.78,29.95z"/>
		
			<linearGradient id="SVGID_9_" gradientUnits="userSpaceOnUse" x1="51.8666" y1="24.5481" x2="51.8666" y2="132.8238" gradientTransform="matrix(1 0 0 -1 0 202)">
			<stop  offset="0" style="stop-color:#140E1F"/>
			<stop  offset="1" style="stop-color:#2A286E"/>
		</linearGradient>
		<path class="st8" d="M3.81,69.18l96.11,108.28L65.99,77.06L3.81,69.18z"/>
		
			<linearGradient id="SVGID_10_" gradientUnits="userSpaceOnUse" x1="147.9734" y1="24.5481" x2="147.9734" y2="132.8238" gradientTransform="matrix(1 0 0 -1 0 202)">
			<stop  offset="0" style="stop-color:#460733"/>
			<stop  offset="1" style="stop-color:#630813"/>
		</linearGradient>
		<path class="st9" d="M196.03,69.18L99.92,177.45l33.93-100.39L196.03,69.18z"/>
	</g>
	<g class="st10">
		
			<linearGradient id="SVGID_11_" gradientUnits="userSpaceOnUse" x1="34.902" y1="132.8238" x2="34.902" y2="172.0487" gradientTransform="matrix(1 0 0 -1 0 202)">
			<stop  offset="0" style="stop-color:#0E5656"/>
			<stop  offset="1" style="stop-color:#5D79BC"/>
		</linearGradient>
		<path class="st11" d="M32.07,29.95L3.81,69.18l62.18-11.13L32.07,29.95z"/>
		
			<linearGradient id="SVGID_12_" gradientUnits="userSpaceOnUse" x1="164.938" y1="132.8238" x2="164.938" y2="172.0487" gradientTransform="matrix(1 0 0 -1 0 202)">
			<stop  offset="0" style="stop-color:#34130E"/>
			<stop  offset="1" style="stop-color:#9C1C1F"/>
		</linearGradient>
		<path class="st12" d="M167.78,29.95l28.25,39.22l-62.18-11.13L167.78,29.95z"/>
		
			<linearGradient id="SVGID_13_" gradientUnits="userSpaceOnUse" x1="99.92" y1="143.9558" x2="99.92" y2="179.6551" gradientTransform="matrix(1 0 0 -1 0 202)">
			<stop  offset="0" style="stop-color:#E4D7EA"/>
			<stop  offset="1" style="stop-color:#D7E36D"/>
		</linearGradient>
		<path class="st13" d="M99.92,22.34l-33.93,35.7h33.93h33.93L99.92,22.34z"/>
		
			<linearGradient id="SVGID_14_" gradientUnits="userSpaceOnUse" x1="99.92" y1="24.5481" x2="99.92" y2="143.9558" gradientTransform="matrix(1 0 0 -1 0 202)">
			<stop  offset="0" style="stop-color:#A64198"/>
			<stop  offset="1" style="stop-color:#DFA7CC"/>
		</linearGradient>
		<path class="st14" d="M99.92,177.45l33.93-119.41H99.92H65.99L99.92,177.45z"/>
		
			<linearGradient id="SVGID_15_" gradientUnits="userSpaceOnUse" x1="52.1821" y1="151.9282" x2="76.1227" y2="193.3945" gradientTransform="matrix(1 0 0 -1 0 202)">
			<stop  offset="0" style="stop-color:#026674"/>
			<stop  offset="1" style="stop-color:#85C441"/>
		</linearGradient>
		<path class="st15" d="M32.07,29.95l33.92,28.09l33.93-35.7L32.07,29.95z"/>
		
			<linearGradient id="SVGID_16_" gradientUnits="userSpaceOnUse" x1="150.3359" y1="156.8862" x2="117.3625" y2="194.8177" gradientTransform="matrix(1 0 0 -1 0 202)">
			<stop  offset="0" style="stop-color:#DD3326"/>
			<stop  offset="1" style="stop-color:#D2D028"/>
		</linearGradient>
		<path class="st16" d="M99.92,22.34l33.93,35.7l33.93-28.09L99.92,22.34z"/>
		
			<linearGradient id="SVGID_17_" gradientUnits="userSpaceOnUse" x1="51.8666" y1="24.5481" x2="51.8666" y2="143.9558" gradientTransform="matrix(1 0 0 -1 0 202)">
			<stop  offset="0" style="stop-color:#140E1F"/>
			<stop  offset="1" style="stop-color:#2A286E"/>
		</linearGradient>
		<path class="st17" d="M3.81,69.18l96.11,108.28L65.99,58.04L3.81,69.18z"/>
		
			<linearGradient id="SVGID_18_" gradientUnits="userSpaceOnUse" x1="147.9734" y1="24.5481" x2="147.9734" y2="143.9558" gradientTransform="matrix(1 0 0 -1 0 202)">
			<stop  offset="0" style="stop-color:#460733"/>
			<stop  offset="1" style="stop-color:#630813"/>
		</linearGradient>
		<path class="st18" d="M196.03,69.18L99.92,177.45l33.93-119.41L196.03,69.18z"/>
	</g>
	<g>
		<path class="st19" d="M32.07,29.95L3.81,69.18l62.18,7.89L32.07,29.95z"/>
		<path class="st19" d="M167.78,29.95l28.25,39.22l-62.18,7.89L167.78,29.95z"/>
		<path class="st19" d="M99.92,37.56L65.99,77.06h33.93h33.93L99.92,37.56z"/>
		<path class="st19" d="M99.92,177.45l33.93-100.39H99.92H65.99L99.92,177.45z"/>
		<path class="st19" d="M32.07,29.95l33.92,47.11l33.93-39.51L32.07,29.95z"/>
		<path class="st19" d="M99.92,37.56l33.93,39.51l33.93-47.11L99.92,37.56z"/>
		<path class="st19" d="M32.07,29.95l67.85,7.61V22.34L32.07,29.95z"/>
		<path class="st19" d="M167.78,29.95l-67.86-7.61v15.21L167.78,29.95z"/>
		<path class="st19" d="M3.81,69.18l96.11,108.28L65.99,77.06L3.81,69.18z"/>
		<path class="st19" d="M196.03,69.18L99.92,177.45l33.93-100.39L196.03,69.18z"/>
	</g>
</g>
</svg>
