<?xml version="1.0" encoding="utf-8"?>
<!-- Generator: Adobe Illustrator 23.0.2, SVG Export Plug-In . SVG Version: 6.00 Build 0)  -->
<svg version="1.1" id="Layer_1" xmlns="http://www.w3.org/2000/svg" xmlns:xlink="http://www.w3.org/1999/xlink" x="0px" y="0px"
	 viewBox="0 0 200 200" style="enable-background:new 0 0 200 200;" xml:space="preserve">
<style type="text/css">
	.st0{fill:url(#SVGID_1_);}
	.st1{fill:url(#SVGID_2_);}
	.st2{fill:url(#SVGID_3_);}
	.st3{fill:url(#SVGID_4_);}
	.st4{fill:url(#SVGID_5_);}
	.st5{fill:url(#SVGID_6_);}
	.st6{fill:url(#SVGID_7_);}
	.st7{fill:url(#SVGID_8_);}
	.st8{opacity:0.3;}
	.st9{fill:url(#SVGID_9_);}
	.st10{fill:url(#SVGID_10_);}
	.st11{fill:url(#SVGID_11_);}
	.st12{fill:url(#SVGID_12_);}
	.st13{fill:url(#SVGID_13_);}
	.st14{fill:url(#SVGID_14_);}
	.st15{fill:url(#SVGID_15_);}
	.st16{fill:url(#SVGID_16_);}
	.st17{fill:none;}
</style>
<g>
	<g>
		
			<linearGradient id="SVGID_1_" gradientUnits="userSpaceOnUse" x1="99.395" y1="7.62" x2="99.395" y2="194.38" gradientTransform="matrix(1 0 0 -1 0 200)">
			<stop  offset="0" style="stop-color:#D7E36D"/>
			<stop  offset="1" style="stop-color:#E4D7EA"/>
		</linearGradient>
		<path class="st0" d="M99.4,5.62L72.02,66.46l12.43,125.92h29.89l12.43-125.92L99.4,5.62z"/>
		
			<linearGradient id="SVGID_2_" gradientUnits="userSpaceOnUse" x1="51.3578" y1="163.9593" x2="99.3979" y2="163.9593" gradientTransform="matrix(1 0 0 -1 0 200)">
			<stop  offset="0" style="stop-color:#2A286E"/>
			<stop  offset="1" style="stop-color:#140E1F"/>
		</linearGradient>
		<path class="st1" d="M99.4,5.62L51.36,60.54l20.66,5.92L99.4,5.62z"/>
		
			<linearGradient id="SVGID_3_" gradientUnits="userSpaceOnUse" x1="99.3979" y1="163.9593" x2="147.4322" y2="163.9593" gradientTransform="matrix(1 0 0 -1 0 200)">
			<stop  offset="0" style="stop-color:#460733"/>
			<stop  offset="1" style="stop-color:#630813"/>
		</linearGradient>
		<path class="st2" d="M99.4,5.62l48.03,54.92l-20.66,5.92L99.4,5.62z"/>
		
			<linearGradient id="SVGID_4_" gradientUnits="userSpaceOnUse" x1="76.1691" y1="7.62" x2="76.1691" y2="133.5386" gradientTransform="matrix(1 0 0 -1 0 200)">
			<stop  offset="0" style="stop-color:#85C441"/>
			<stop  offset="1" style="stop-color:#026674"/>
		</linearGradient>
		<path class="st3" d="M84.45,192.38l-16.56-7.33l4.13-118.59L84.45,192.38z"/>
		
			<linearGradient id="SVGID_5_" gradientUnits="userSpaceOnUse" x1="61.6882" y1="14.934" x2="61.6882" y2="139.4627" gradientTransform="matrix(1 0 0 -1 0 200)">
			<stop  offset="0" style="stop-color:#0E5656"/>
			<stop  offset="1" style="stop-color:#5D79BC"/>
		</linearGradient>
		<path class="st4" d="M51.36,60.54c0,0,16.45,126.44,16.53,124.51c0.07-1.94,4.13-118.59,4.13-118.59L51.36,60.54z"/>
		
			<linearGradient id="SVGID_6_" gradientUnits="userSpaceOnUse" x1="122.6209" y1="7.62" x2="122.6209" y2="133.5386" gradientTransform="matrix(1 0 0 -1 0 200)">
			<stop  offset="0" style="stop-color:#D2D028"/>
			<stop  offset="1" style="stop-color:#DD3326"/>
		</linearGradient>
		<path class="st5" d="M114.34,192.38l16.56-7.33l-4.13-118.59L114.34,192.38z"/>
		
			<linearGradient id="SVGID_7_" gradientUnits="userSpaceOnUse" x1="137.1017" y1="14.934" x2="137.1017" y2="139.4627" gradientTransform="matrix(1 0 0 -1 0 200)">
			<stop  offset="0" style="stop-color:#34130E"/>
			<stop  offset="1" style="stop-color:#9C1C1F"/>
		</linearGradient>
		<path class="st6" d="M147.43,60.54c0,0-16.45,126.44-16.53,124.51c-0.07-1.94-4.13-118.59-4.13-118.59L147.43,60.54z"/>
		
			<linearGradient id="SVGID_8_" gradientUnits="userSpaceOnUse" x1="99.395" y1="133.5386" x2="99.395" y2="194.38" gradientTransform="matrix(1 0 0 -1 0 200)">
			<stop  offset="0" style="stop-color:#DFA7CC"/>
			<stop  offset="1" style="stop-color:#A64198"/>
		</linearGradient>
		<path class="st7" d="M72.02,66.46h54.75L99.4,5.62L72.02,66.46z"/>
	</g>
	<g class="st8">
		
			<linearGradient id="SVGID_9_" gradientUnits="userSpaceOnUse" x1="99.395" y1="23.3334" x2="99.395" y2="194.38" gradientTransform="matrix(1 0 0 -1 0 200)">
			<stop  offset="0" style="stop-color:#D7E36D"/>
			<stop  offset="1" style="stop-color:#E4D7EA"/>
		</linearGradient>
		<path class="st9" d="M99.4,5.62L72.02,54.38l18.47,122.29h17.81l18.47-122.29L99.4,5.62z"/>
		
			<linearGradient id="SVGID_10_" gradientUnits="userSpaceOnUse" x1="51.3578" y1="166.9213" x2="99.3979" y2="166.9213" gradientTransform="matrix(1 0 0 -1 0 200)">
			<stop  offset="0" style="stop-color:#2A286E"/>
			<stop  offset="1" style="stop-color:#140E1F"/>
		</linearGradient>
		<path class="st10" d="M99.4,5.62L51.36,60.54l20.66-6.16L99.4,5.62z"/>
		
			<linearGradient id="SVGID_11_" gradientUnits="userSpaceOnUse" x1="99.3979" y1="166.9213" x2="147.4322" y2="166.9213" gradientTransform="matrix(1 0 0 -1 0 200)">
			<stop  offset="0" style="stop-color:#460733"/>
			<stop  offset="1" style="stop-color:#630813"/>
		</linearGradient>
		<path class="st11" d="M99.4,5.62l48.03,54.92l-20.66-6.16L99.4,5.62z"/>
		
			<linearGradient id="SVGID_12_" gradientUnits="userSpaceOnUse" x1="79.19" y1="14.9502" x2="79.19" y2="145.6221" gradientTransform="matrix(1 0 0 -1 0 200)">
			<stop  offset="0" style="stop-color:#85C441"/>
			<stop  offset="1" style="stop-color:#026674"/>
		</linearGradient>
		<path class="st12" d="M90.49,176.67l-22.6,8.38l4.13-130.67L90.49,176.67z"/>
		
			<linearGradient id="SVGID_13_" gradientUnits="userSpaceOnUse" x1="61.6882" y1="14.934" x2="61.6882" y2="145.628" gradientTransform="matrix(1 0 0 -1 0 200)">
			<stop  offset="0" style="stop-color:#0E5656"/>
			<stop  offset="1" style="stop-color:#5D79BC"/>
		</linearGradient>
		<path class="st13" d="M51.36,60.54c0,0,16.45,126.44,16.53,124.51c0.07-1.94,4.13-130.67,4.13-130.67L51.36,60.54z"/>
		
			<linearGradient id="SVGID_14_" gradientUnits="userSpaceOnUse" x1="119.6" y1="14.9502" x2="119.6" y2="145.6221" gradientTransform="matrix(1 0 0 -1 0 200)">
			<stop  offset="0" style="stop-color:#D2D028"/>
			<stop  offset="1" style="stop-color:#DD3326"/>
		</linearGradient>
		<path class="st14" d="M108.3,176.67l22.6,8.38l-4.13-130.67L108.3,176.67z"/>
		
			<linearGradient id="SVGID_15_" gradientUnits="userSpaceOnUse" x1="137.1017" y1="14.934" x2="137.1017" y2="145.628" gradientTransform="matrix(1 0 0 -1 0 200)">
			<stop  offset="0" style="stop-color:#34130E"/>
			<stop  offset="1" style="stop-color:#9C1C1F"/>
		</linearGradient>
		<path class="st15" d="M147.43,60.54c0,0-16.45,126.44-16.53,124.51c-0.07-1.94-4.13-130.67-4.13-130.67L147.43,60.54z"/>
		
			<linearGradient id="SVGID_16_" gradientUnits="userSpaceOnUse" x1="99.395" y1="145.6221" x2="99.395" y2="194.38" gradientTransform="matrix(1 0 0 -1 0 200)">
			<stop  offset="0" style="stop-color:#DFA7CC"/>
			<stop  offset="1" style="stop-color:#A64198"/>
		</linearGradient>
		<path class="st16" d="M72.02,54.38h54.75L99.4,5.62L72.02,54.38z"/>
	</g>
	<g>
		<path class="st17" d="M99.4,5.62L72.02,66.46l12.43,125.92h29.89l12.43-125.92L99.4,5.62z"/>
		<path class="st17" d="M99.4,5.62L51.36,60.54l20.66,5.92L99.4,5.62z"/>
		<path class="st17" d="M99.4,5.62l48.03,54.92l-20.66,5.92L99.4,5.62z"/>
		<path class="st17" d="M84.45,192.38l-16.56-7.33l4.13-118.59L84.45,192.38z"/>
		<path class="st17" d="M51.36,60.54c0,0,16.45,126.44,16.53,124.51c0.07-1.94,4.13-118.59,4.13-118.59L51.36,60.54z"/>
		<path class="st17" d="M114.34,192.38l16.56-7.33l-4.13-118.59L114.34,192.38z"/>
		<path class="st17" d="M147.43,60.54c0,0-16.45,126.44-16.53,124.51c-0.07-1.94-4.13-118.59-4.13-118.59L147.43,60.54z"/>
		<path class="st17" d="M72.02,66.46h54.75L99.4,5.62L72.02,66.46z"/>
	</g>
</g>
</svg>
