<?xml version="1.0" encoding="utf-8"?>
<!-- Generator: Adobe Illustrator 23.0.2, SVG Export Plug-In . SVG Version: 6.00 Build 0)  -->
<svg version="1.1" id="Layer_1" xmlns="http://www.w3.org/2000/svg" xmlns:xlink="http://www.w3.org/1999/xlink" x="0px" y="0px"
	 viewBox="0 0 200 200" style="enable-background:new 0 0 200 200;" xml:space="preserve">
<style type="text/css">
	.st0{fill:url(#SVGID_1_);}
	.st1{fill:url(#SVGID_2_);}
	.st2{fill:url(#SVGID_3_);}
	.st3{fill:url(#SVGID_4_);}
	.st4{fill:url(#SVGID_5_);}
	.st5{fill:url(#SVGID_6_);}
	.st6{opacity:0.5;}
	.st7{fill:url(#SVGID_7_);}
	.st8{fill:url(#SVGID_8_);}
	.st9{fill:url(#SVGID_9_);}
	.st10{fill:url(#SVGID_10_);}
	.st11{fill:url(#SVGID_11_);}
	.st12{fill:url(#SVGID_12_);}
	.st13{fill:none;}
</style>
<g>
	<g>
		
			<linearGradient id="SVGID_1_" gradientUnits="userSpaceOnUse" x1="74.0497" y1="67.9894" x2="75.2551" y2="166.8358" gradientTransform="matrix(1 0 0 -1 0 202)">
			<stop  offset="0" style="stop-color:#026674"/>
			<stop  offset="1" style="stop-color:#85C441"/>
		</linearGradient>
		<path class="st0" d="M50.03,100l25.63,10.67L100,9.19L50.03,100z"/>
		
			<linearGradient id="SVGID_2_" gradientUnits="userSpaceOnUse" x1="85.5666" y1="175.2451" x2="153.7449" y2="90.2327" gradientTransform="matrix(1 0 0 -1 0 202)">
			<stop  offset="0" style="stop-color:#DD3326"/>
			<stop  offset="1" style="stop-color:#D2D028"/>
		</linearGradient>
		<path class="st1" d="M149.97,100l-25.63,10.67L100,9.19L149.97,100z"/>
		
			<linearGradient id="SVGID_3_" gradientUnits="userSpaceOnUse" x1="51.1974" y1="96.9372" x2="119.3727" y2="11.9284" gradientTransform="matrix(1 0 0 -1 0 202)">
			<stop  offset="0" style="stop-color:#2A286E"/>
			<stop  offset="1" style="stop-color:#140E1F"/>
		</linearGradient>
		<path class="st2" d="M100,190.81l-24.34-80.14L50.03,100L100,190.81z"/>
		
			<linearGradient id="SVGID_4_" gradientUnits="userSpaceOnUse" x1="100" y1="85.2669" x2="100" y2="178.9331" gradientTransform="matrix(1 0 0 -1 0 202)">
			<stop  offset="0" style="stop-color:#E4D7EA"/>
			<stop  offset="1" style="stop-color:#D7E36D"/>
		</linearGradient>
		<path class="st3" d="M100,9.19L100,9.19L100,9.19L100,9.19L100,9.19L75.66,110.67H100l0,0h24.34L100,9.19z"/>
		
			<linearGradient id="SVGID_5_" gradientUnits="userSpaceOnUse" x1="100" y1="11.1861" x2="100" y2="91.329" gradientTransform="matrix(1 0 0 -1 0 202)">
			<stop  offset="0" style="stop-color:#A64198"/>
			<stop  offset="1" style="stop-color:#DFA7CC"/>
		</linearGradient>
		<path class="st4" d="M100,190.81L100,190.81L100,190.81L100,190.81L100,190.81l24.34-80.14H100l0,0H75.66L100,190.81z"/>
		
			<linearGradient id="SVGID_6_" gradientUnits="userSpaceOnUse" x1="100.0027" y1="56.5917" x2="149.9664" y2="56.5917" gradientTransform="matrix(1 0 0 -1 0 202)">
			<stop  offset="0" style="stop-color:#460733"/>
			<stop  offset="1" style="stop-color:#630813"/>
		</linearGradient>
		<path class="st5" d="M149.97,100L100,190.81l24.34-80.14L149.97,100z"/>
	</g>
	<g class="st6">
		
			<linearGradient id="SVGID_7_" gradientUnits="userSpaceOnUse" x1="74.0497" y1="-63.9978" x2="75.2552" y2="34.8486" gradientTransform="matrix(1 0 0 1 0 129.99)">
			<stop  offset="0" style="stop-color:#026674"/>
			<stop  offset="1" style="stop-color:#85C441"/>
		</linearGradient>
		<path class="st7" d="M50.03,100l25.63-10.66L100,190.81L50.03,100z"/>
		
			<linearGradient id="SVGID_8_" gradientUnits="userSpaceOnUse" x1="85.5666" y1="43.2579" x2="153.7448" y2="-41.7545" gradientTransform="matrix(1 0 0 1 0 129.99)">
			<stop  offset="0" style="stop-color:#DD3326"/>
			<stop  offset="1" style="stop-color:#D2D028"/>
		</linearGradient>
		<path class="st8" d="M149.97,100l-25.63-10.66L100,190.81L149.97,100z"/>
		
			<linearGradient id="SVGID_9_" gradientUnits="userSpaceOnUse" x1="51.1973" y1="-35.05" x2="119.3727" y2="-120.0588" gradientTransform="matrix(1 0 0 1 0 129.99)">
			<stop  offset="0" style="stop-color:#2A286E"/>
			<stop  offset="1" style="stop-color:#140E1F"/>
		</linearGradient>
		<path class="st9" d="M100,9.19L75.66,89.33L50.03,100L100,9.19z"/>
		
			<linearGradient id="SVGID_10_" gradientUnits="userSpaceOnUse" x1="100" y1="-46.7203" x2="100" y2="46.9459" gradientTransform="matrix(1 0 0 1 0 129.99)">
			<stop  offset="0" style="stop-color:#E4D7EA"/>
			<stop  offset="1" style="stop-color:#D7E36D"/>
		</linearGradient>
		<path class="st10" d="M100,190.81L100,190.81L100,190.81L100,190.81L100,190.81L75.66,89.33H100H100h24.34L100,190.81z"/>
		
			<linearGradient id="SVGID_11_" gradientUnits="userSpaceOnUse" x1="100" y1="-120.8039" x2="100" y2="-40.6555" gradientTransform="matrix(1 0 0 1 0 129.99)">
			<stop  offset="0" style="stop-color:#A64198"/>
			<stop  offset="1" style="stop-color:#DFA7CC"/>
		</linearGradient>
		<path class="st11" d="M100,9.19L100,9.19L100,9.19L100,9.19L100,9.19l24.34,80.14H100l0,0H75.66L100,9.19z"/>
		
			<linearGradient id="SVGID_12_" gradientUnits="userSpaceOnUse" x1="100.0027" y1="-75.3983" x2="149.9664" y2="-75.3983" gradientTransform="matrix(1 0 0 1 0 129.99)">
			<stop  offset="0" style="stop-color:#460733"/>
			<stop  offset="1" style="stop-color:#630813"/>
		</linearGradient>
		<path class="st12" d="M149.97,100L100,9.19l24.34,80.15L149.97,100z"/>
	</g>
	<g>
		<path class="st13" d="M50.03,100l25.63,10.67L100,9.19L50.03,100z"/>
		<path class="st13" d="M149.97,100l-25.63,10.67L100,9.19L149.97,100z"/>
		<path class="st13" d="M100,190.81l-24.34-80.14L50.03,100L100,190.81z"/>
		<path class="st13" d="M100,9.19L100,9.19L100,9.19L100,9.19L100,9.19L75.66,110.67H100l0,0h24.34L100,9.19z"/>
		<path class="st13" d="M100,190.81L100,190.81L100,190.81L100,190.81L100,190.81l24.34-80.14H100l0,0H75.66L100,190.81z"/>
		<path class="st13" d="M149.97,100L100,190.81l24.34-80.14L149.97,100z"/>
	</g>
</g>
</svg>
