<?xml version="1.0" encoding="utf-8"?>
<svg id="master-artboard" viewBox="0 0 1096 780" version="1.1" xmlns="http://www.w3.org/2000/svg" x="0px" y="0px" style="enable-background:new 0 0 1096 780;" width="1096px" height="780px" xmlns:xlink="http://www.w3.org/1999/xlink">
<path d="M 0 0 H 1096 V 780 H 0 V 0 Z" style="fill:#2B2B2B;"/>
<g>
	
		<image style="overflow:visible;" width="1089" height="2143" transform="matrix(0.24 0 0 0.24 136.56 281.92)" xlink:href="480505C60381DEA5.png">
	</image>
	<g>
		<g>
			<g>
				<path style="fill:#F8EA47;" d="M262.466,621.523c-0.913-0.715-1.956-0.735-2.829-0.381c-0.141,0.017-0.282,0.033-0.431,0.074&#10;&#9;&#9;&#9;&#9;&#9;c-14.206,3.922-28.411,7.844-42.617,11.766c6.876-18.785,13.751-37.57,20.627-56.354c0.295-0.806,0.195-1.499-0.139-2.034&#10;&#9;&#9;&#9;&#9;&#9;c0.084-0.512,0.013-1.073-0.275-1.647c-5.931-11.811-11.861-23.623-17.792-35.434c-0.124-0.248-0.274-0.445-0.434-0.62&#10;&#9;&#9;&#9;&#9;&#9;c2.171-28.005,4.342-56.011,6.513-84.016c24.927-0.599,49.854-1.198,74.781-1.798c3.267,11.75,6.535,23.499,9.802,35.249&#10;&#9;&#9;&#9;&#9;&#9;c-0.119,0.265-0.212,0.554-0.246,0.885c-5.416,52.786-10.832,105.573-16.247,158.359&#10;&#9;&#9;&#9;&#9;&#9;C282.941,637.555,272.704,629.539,262.466,621.523z"/>
				<path style="fill:#F8EA47;" d="M260.642,624.352l-0.588,0.116l-48.85,13.478l22.72-62.075l-0.359-0.576l0.164-0.999&#10;&#9;&#9;&#9;&#9;&#9;l-17.669-35.188l-0.938-1.025l6.859-88.487l80.417-1.932l7.922,28.483l2.902,10.454l-0.473,1.054l-16.857,164.298&#10;&#9;&#9;&#9;&#9;&#9;L260.642,624.352z M297.341,454.492l-69.142,1.662l-6.191,79.856l17.79,35.43c0.402,0.801,0.625,1.651,0.661,2.506&#10;&#9;&#9;&#9;&#9;&#9;c0.409,1.202,0.383,2.526-0.094,3.833l-18.389,50.238l36.355-10.037c0.168-0.046,0.33-0.08,0.496-0.108&#10;&#9;&#9;&#9;&#9;&#9;c1.967-0.636,4.069-0.271,5.707,1.011l25.931,20.305l15.628-152.322c0.02-0.196,0.05-0.391,0.088-0.584L297.341,454.492z&#10;&#9;&#9;&#9;&#9;&#9; M216.013,539.013l-0.001-0.002C216.012,539.011,216.013,539.012,216.013,539.013z"/>
			</g>
			<g>
				<path style="fill:#F5C400;" d="M287.045,647.477c-12.769,0.749-25.539,1.499-38.308,2.248c-0.042,0.002-0.077,0.015-0.118,0.019&#10;&#9;&#9;&#9;&#9;&#9;c-9.719-4.012-19.439-8.024-29.158-12.036c13.581-3.749,27.162-7.499,40.742-11.248&#10;&#9;&#9;&#9;&#9;&#9;C269.15,633.466,278.098,640.471,287.045,647.477z"/>
				<path style="fill:#F5C400;" d="M209.15,637.077l51.791-14.298l35.152,27.524l-46.953,2.756l-1.023,0.104L209.15,637.077z&#10;&#9;&#9;&#9;&#9;&#9; M248.9,653.074c0.023-0.001,0.046-0.003,0.068-0.004L248.9,653.074z M249.304,653.027c0.015-0.003,0.029-0.005,0.044-0.008&#10;&#9;&#9;&#9;&#9;&#9;L249.304,653.027z M247.996,646.452l0.056-0.01C248.034,646.445,248.015,646.448,247.996,646.452z M259.467,630.141&#10;&#9;&#9;&#9;&#9;&#9;l-29.694,8.198l19.391,8.005l28.835-1.693L259.467,630.141z"/>
			</g>
			<g>
				<path style="fill:#F5C400;" d="M201.483,574.346l14.762-30.504c5.268,10.491,10.535,20.982,15.803,31.473&#10;&#9;&#9;&#9;&#9;&#9;c-6.174,16.867-12.348,33.735-18.522,50.602c-3.975-17.073-7.949-34.146-11.923-51.219&#10;&#9;&#9;&#9;&#9;&#9;C201.573,574.57,201.525,574.461,201.483,574.346z"/>
				<path style="fill:#F5C400;" d="M198.351,575.514l-0.008,0.003l-0.501-1.343l18.348-37.914l19.503,38.845l-22.884,62.52&#10;&#9;&#9;&#9;&#9;&#9;L198.351,575.514z M216.3,551.423l-11.259,23.266l9.201,39.521l14.161-38.686L216.3,551.423z M198.997,575.308l-0.646,0.207&#10;&#9;&#9;&#9;&#9;&#9;c0.014,0.049,0.027,0.096,0.044,0.141l1.536-0.566L198.997,575.308z M198.338,575.462c0,0,0,0,0,0.001V575.462L198.338,575.462z&#10;&#9;&#9;&#9;&#9;&#9; M201.54,574.496l-2.512,0.802l0.915-0.213L201.54,574.496z"/>
			</g>
			<g>
				<path style="fill:#B29800;" d="M221.306,444.893c-10.874-12.848-21.749-25.695-32.623-38.543&#10;&#9;&#9;&#9;&#9;&#9;c19.849-24.816,39.698-49.632,59.548-74.448C239.256,369.565,230.281,407.229,221.306,444.893z"/>
				<path style="fill:#B29800;" d="M184.343,406.41l70.616-88.288L223.03,452.118L184.343,406.41z M193.024,406.29l26.558,31.377&#10;&#9;&#9;&#9;&#9;&#9;l21.919-91.986L193.024,406.29z"/>
			</g>
			<g>
				<path style="fill:#FFDD00;" d="M226.143,447.531c9.073-38.077,18.147-76.154,27.22-114.231&#10;&#9;&#9;&#9;&#9;&#9;c8.493,18.929,16.986,37.857,25.479,56.786c6.394,18.572,12.787,37.145,19.181,55.717&#10;&#9;&#9;&#9;&#9;&#9;C274.063,446.379,250.103,446.955,226.143,447.531z"/>
				<path style="fill:#FFDD00;" d="M254.959,318.122l26.942,70.592l20.783,60.329l-80.809,1.942L254.959,318.122z M275.722,391.321&#10;&#9;&#9;&#9;&#9;&#9;l-21.383-47.657l-23.927,100.412l62.95-1.514L275.722,391.321z"/>
			</g>
			<g>
				<path style="fill:#8B7A27;" d="M185.43,624.352c7.165,4.007,14.33,8.014,21.494,12.02L187.79,655.04&#10;&#9;&#9;&#9;&#9;&#9;C187.003,644.811,186.216,634.582,185.43,624.352z"/>
				<path style="fill:#8B7A27;" d="M181.609,618.375l30.868,17.263l-27.479,26.809L181.609,618.375z M189.251,630.33l1.331,17.303&#10;&#9;&#9;&#9;&#9;&#9;l10.789-10.526L189.251,630.33z"/>
			</g>
			<g>
				<path style="fill:#B29800;" d="M188.47,661.811c7.413-7.232,14.826-14.465,22.239-21.697&#10;&#9;&#9;&#9;&#9;&#9;c8.172,29.343,16.344,58.687,24.516,88.03C219.64,706.032,204.055,683.922,188.47,661.811z"/>
				<path style="fill:#B29800;" d="M184.997,662.447l27.422-28.685l28.745,108.371L184.997,662.447z M192.856,662.215l33.94,48.149&#10;&#9;&#9;&#9;&#9;&#9;l-17.797-63.9L192.856,662.215z"/>
			</g>
			<g>
				<path style="fill:#C7A900;" d="M196.401,572.671c-0.422,0.873-0.343,1.711,0.006,2.4c-0.037,0.303-0.033,0.625,0.048,0.975&#10;&#9;&#9;&#9;&#9;&#9;c4.316,18.54,8.632,37.079,12.948,55.619c-8.069-4.512-16.137-9.025-24.206-13.537c0.636-68.477,1.273-136.955,1.909-205.432&#10;&#9;&#9;&#9;&#9;&#9;c10.834,12.8,21.668,25.601,32.502,38.401c0.037,0.155,0.103,0.298,0.163,0.443c-0.018,0.25-0.007,0.489,0.04,0.712&#10;&#9;&#9;&#9;&#9;&#9;c-2.217,28.595-4.434,57.191-6.65,85.786C207.574,549.582,201.988,561.126,196.401,572.671z"/>
				<path style="fill:#C7A900;" d="M181.827,620.084l2.516-213.673l38.338,43.126l0.154,0.637l0.337,0.813l-0.05,0.716l0.069,0.337&#10;&#9;&#9;&#9;&#9;&#9;l-6.736,86.889l-16.903,34.93l0.309,0.609l-0.114,0.927l14.643,62.898L181.827,620.084z M193.385,571.21l16.483-34.064&#10;&#9;&#9;&#9;&#9;&#9;l6.56-84.621l-26.054-30.782l-1.807,194.428l15.851,8.864l-11.229-48.234c-0.087-0.378-0.138-0.763-0.152-1.151&#10;&#9;&#9;&#9;&#9;&#9;C192.583,574.198,192.699,572.624,193.385,571.21z"/>
			</g>
			<g>
				<path style="fill:#FFDD00;" d="M242.235,733.482c-8.46-30.378-16.921-60.756-25.381-91.134&#10;&#9;&#9;&#9;&#9;&#9;c10.731,4.43,21.462,8.859,32.192,13.289c1.217,0.503,25.677-2.119,37.162-2.793c0.18,0.603,0.563,1.16,1.082,1.554&#10;&#9;&#9;&#9;&#9;&#9;C272.272,680.759,257.253,707.121,242.235,733.482z"/>
				<path style="fill:#FFDD00;" d="M211.781,636.627l38.093,15.724c0.019,0.001,0.038,0.001,0.059,0.001&#10;&#9;&#9;&#9;&#9;&#9;c2.146,0,10.303-0.722,16.938-1.309c6.969-0.617,14.174-1.254,19.14-1.546l6.052,0.498l-0.407,3.51l-50.492,88.628&#10;&#9;&#9;&#9;&#9;&#9;L211.781,636.627z M267.463,657.721c-17.682,1.564-18.472,1.519-19.696,1.014l-25.841-10.667l21.38,76.765l38.946-68.361&#10;&#9;&#9;&#9;&#9;&#9;C277.882,656.798,272.608,657.266,267.463,657.721z"/>
			</g>
			<g>
				<path style="fill:#FFD100;" d="M259.239,714.383c11.741-20.609,23.483-41.218,35.224-61.828&#10;&#9;&#9;&#9;&#9;&#9;c6.029-2.935,12.059-5.87,18.088-8.805C294.78,667.295,277.01,690.839,259.239,714.383z"/>
				<path style="fill:#FFD100;" d="M292.064,649.995l32.626-13.915l-83.525,106.053L292.064,649.995z M296.863,655.116&#10;&#9;&#9;&#9;&#9;&#9;l-8.962,15.729l13.563-17.969L296.863,655.116z"/>
			</g>
			<g>
				<path style="fill:#FFDD00;" d="M321.566,633.523c-0.034,0.011-0.068,0.012-0.102,0.024c-0.643,0.041-1.277,0.3-1.796,0.836&#10;&#9;&#9;&#9;&#9;&#9;l-21.065,10.254l15.808-154.078c0.261-0.279,0.476-0.631,0.609-1.077c5.166-17.254,10.331-34.507,15.497-51.761&#10;&#9;&#9;&#9;&#9;&#9;c5.723-7.418,11.447-14.835,17.17-22.253C337.249,487.934,328.522,560.639,321.566,633.523z"/>
				<path style="fill:#FFDD00;" d="M311.192,489.092l0.657-0.701l15.635-52.225l25.339-32.841l-1.818,12.622&#10;&#9;&#9;&#9;&#9;&#9;c-10.438,72.47-19.22,145.781-26.102,217.896l-0.213,2.238l-2.152,0.652l-0.425,0.133l-0.194,0.012l-0.256,0.263l-27.009,13.148&#10;&#9;&#9;&#9;&#9;&#9;L311.192,489.092z M318.43,631.106c6.461-67.367,14.575-135.763,24.143-203.524l-9.023,11.695l-15.319,51.17&#10;&#9;&#9;&#9;&#9;&#9;c-0.142,0.474-0.335,0.919-0.576,1.332l-15.103,147.207l15.224-7.41C317.985,631.404,318.203,631.247,318.43,631.106z"/>
			</g>
			<g>
				<path style="fill:#FFFDEE;" d="M302.927,443.749c-5.146-14.948-10.292-29.897-15.438-44.845&#10;&#9;&#9;&#9;&#9;&#9;c11.598,11.86,23.197,23.721,34.795,35.581C315.832,437.573,309.38,440.661,302.927,443.749z"/>
				<path style="fill:#FFFDEE;" d="M279.471,385.91l48.483,49.578l-26.972,12.908L279.471,385.91z M295.508,411.897l9.365,27.205&#10;&#9;&#9;&#9;&#9;&#9;l11.743-5.62L295.508,411.897z"/>
			</g>
			<g>
				<path style="fill:#FFF297;" d="M324.487,439.312c-3.865,12.911-7.731,25.821-11.596,38.732&#10;&#9;&#9;&#9;&#9;&#9;c-2.714-9.761-5.429-19.523-8.143-29.284C311.327,445.611,317.907,442.462,324.487,439.312z"/>
				<path style="fill:#FFF297;" d="M300.766,446.95l29.104-13.931l-17.098,57.109L300.766,446.95z M308.73,450.57l4.279,15.39&#10;&#9;&#9;&#9;&#9;&#9;l6.095-20.355L308.73,450.57z"/>
			</g>
			<g>
				<path style="fill:#FFF297;" d="M349.214,404.851c-7.125,9.234-14.25,18.469-21.375,27.703&#10;&#9;&#9;&#9;&#9;&#9;c-14.862-15.198-29.725-30.396-44.588-45.594c-0.005-0.005-0.01-0.008-0.015-0.013c-8.542-19.039-12.61-38.078-21.152-57.117&#10;&#9;&#9;&#9;&#9;&#9;c30.574,24.739,56.672,49.479,87.246,74.218C349.291,404.315,349.253,404.583,349.214,404.851z"/>
				<path style="fill:#FFF297;" d="M280.973,389.424l-0.542-0.542l-25.472-70.76l97.953,84.512l-0.51,3.571l-24.265,31.448&#10;&#9;&#9;&#9;&#9;&#9;L280.973,389.424z M266.414,341.266l19.634,43.759l41.49,42.429l17.446-22.61L266.414,341.266z"/>
			</g>
		</g>
	</g>
</g>
<g>
	
		<image style="overflow:visible;" width="1254" height="1970" transform="matrix(0.24 0 0 0.24 566.88 325.84)" xlink:href="480505C60381DEA7.png">
	</image>
	<g>
		<g>
			<g>
				<path style="fill:#84235E;" d="M629.679,425.576c1.247,8.979,2.495,17.958,3.742,26.937&#10;&#9;&#9;&#9;&#9;&#9;c-5.846,4.281-11.692,8.562-17.538,12.844c-0.373-2.481,0.203-6.942,0.203-6.942&#10;&#9;&#9;&#9;&#9;&#9;C621.058,447.635,624.708,436.355,629.679,425.576z"/>
				<path style="fill:#84235E;" d="M612.768,465.824c-0.426-2.834,0.13-7.312,0.194-7.813l0.062-0.479l0.202-0.438&#10;&#9;&#9;&#9;&#9;&#9;c2.446-5.305,4.62-10.867,6.723-16.247c2.136-5.465,4.345-11.117,6.87-16.592l3.535-7.277l6.446,36.964l-23.258,17.03&#10;&#9;&#9;&#9;&#9;&#9;L612.768,465.824z M628.125,437.28c-0.784,1.964-1.551,3.925-2.308,5.862c-2.033,5.203-4.133,10.574-6.508,15.801l10.733-7.859&#10;&#9;&#9;&#9;&#9;&#9;L628.125,437.28z"/>
			</g>
			<g>
				<path style="fill:#EF3FA9;" d="M699.298,370.077c-3.868,24.401-8.203,85.089-12.108,112.368&#10;&#9;&#9;&#9;&#9;&#9;c-15.885-10.041-31.77-20.082-47.655-30.123c-0.117-0.074-0.234-0.116-0.351-0.168c-0.209-0.408-0.523-0.769-0.908-1.04&#10;&#9;&#9;&#9;&#9;&#9;c-1.515-10.904-3.03-21.808-4.545-32.711C655.587,402.294,677.443,386.186,699.298,370.077z"/>
				<path style="fill:#EF3FA9;" d="M637.984,455.068l-1.1-0.485l-0.472-0.928l-1.068-0.753l-4.99-35.923l71.879-54.906l0.177,8.498&#10;&#9;&#9;&#9;&#9;&#9;c-1.999,12.606-4.17,35.474-6.27,57.588c-1.941,20.443-3.948,41.582-5.831,54.732l-0.689,4.815L637.984,455.068z&#10;&#9;&#9;&#9;&#9;&#9; M637.11,419.826l4.136,29.774c0.043,0.051,0.085,0.103,0.126,0.155l43.354,27.404c1.671-13.044,3.433-31.591,5.143-49.598&#10;&#9;&#9;&#9;&#9;&#9;c1.744-18.375,3.538-37.27,5.255-50.495L637.11,419.826z M637.854,454.986l-0.004-0.003&#10;&#9;&#9;&#9;&#9;&#9;C637.851,454.984,637.853,454.985,637.854,454.986z"/>
			</g>
			<g>
				<path style="fill:#F2DAEA;" d="M698.462,627.136c-0.08,0.005-0.147,0.025-0.223,0.035c-3.881-14.313-7.761-28.626-11.642-42.939&#10;&#9;&#9;&#9;&#9;&#9;c3.384-31.64,4.71-63.435,4.048-95.247l71.927-1.79c3.9,45.066,5.703,90.284,5.403,135.516&#10;&#9;&#9;&#9;&#9;&#9;C740.489,624.333,726.664,625.492,698.462,627.136z"/>
				<path style="fill:#F2DAEA;" d="M683.402,584.486l0.063-0.588c3.335-31.177,4.691-63.087,4.031-94.846l-0.065-3.137l78.025-1.941&#10;&#9;&#9;&#9;&#9;&#9;l0.255,2.951c3.892,44.973,5.714,90.665,5.415,135.808l-0.02,2.95l-2.945,0.174c-13.37,0.788-23.677,1.479-33.644,2.146&#10;&#9;&#9;&#9;&#9;&#9;c-10.479,0.702-21.314,1.428-35.717,2.269l-2.885,0.373L683.402,584.486z M698.913,630.251c0.008-0.002,0.015-0.003,0.022-0.005&#10;&#9;&#9;&#9;&#9;&#9;L698.913,630.251z M759.688,490.419l-65.833,1.639c0.512,30.788-0.853,61.693-4.062,91.921l10.811,39.876&#10;&#9;&#9;&#9;&#9;&#9;c13.312-0.785,23.563-1.472,33.495-2.138c9.235-0.618,18.76-1.257,30.746-1.975C765.04,576.741,763.306,533.265,759.688,490.419&#10;&#9;&#9;&#9;&#9;&#9;z"/>
			</g>
			<g>
				<path style="fill:#F8A7D7;" d="M760.414,482.289c-22.799,0.567-45.598,1.135-68.397,1.702&#10;&#9;&#9;&#9;&#9;&#9;c3.957-26.844,8.365-88.855,12.296-113.649C723.013,407.658,741.714,444.973,760.414,482.289z"/>
				<path style="fill:#F8A7D7;" d="M688.901,483.531c1.91-12.962,3.97-34.621,5.961-55.567c2.116-22.256,4.304-45.27,6.34-58.115&#10;&#9;&#9;&#9;&#9;&#9;l1.031-7.776l63.221,123.241l-77.099,1.919L688.901,483.531z M706.044,380.828c-1.604,12.95-3.279,30.568-4.911,47.733&#10;&#9;&#9;&#9;&#9;&#9;c-1.82,19.154-3.698,38.903-5.48,52.188l59.722-1.486L706.044,380.828z"/>
			</g>
			<g>
				<path style="fill:#F2DAEA;" d="M813.962,450.078c-16.185,10.341-32.37,20.682-48.555,31.022L708.927,368.4&#10;&#9;&#9;&#9;&#9;&#9;c31.658,13.692,63.316,27.384,94.975,41.076C807.255,423.01,810.609,436.544,813.962,450.078z"/>
				<path style="fill:#F2DAEA;" d="M702.233,362.073l104.352,45.131l10.979,44.312l-53.406,34.121L702.233,362.073z M801.22,411.748&#10;&#9;&#9;&#9;&#9;&#9;l-85.599-37.021l51.036,101.837l43.704-27.924L801.22,411.748z"/>
			</g>
			<g>
				<path style="fill:#F4A8DC;" d="M772.96,619.899c0.197-44.798-1.62-89.585-5.505-134.217&#10;&#9;&#9;&#9;&#9;&#9;c15.956-10.194,31.911-20.388,47.866-30.583c1.306,39.913,2.612,79.826,3.917,119.739&#10;&#9;&#9;&#9;&#9;&#9;C819.238,574.839,787.342,606.254,772.96,619.899z"/>
				<path style="fill:#F4A8DC;" d="M769.81,619.886c0.197-44.733-1.651-89.793-5.494-133.93l-0.166-1.9l53.412-32.54l4.869,124.6&#10;&#9;&#9;&#9;&#9;&#9;l-0.983,0.968c-0.319,0.314-32.082,31.592-46.321,45.102l-5.351,5.076L769.81,619.886z M812.354,460.734l-41.597,26.577&#10;&#9;&#9;&#9;&#9;&#9;c3.539,41.286,5.342,83.358,5.367,125.205c13.801-13.272,35.115-34.225,39.921-38.953L812.354,460.734z"/>
			</g>
			<g>
				<path style="fill:#F678C4;" d="M741.815,732.811l31.323-105.35c0.099-0.334,0.122-0.649,0.101-0.948&#10;&#9;&#9;&#9;&#9;&#9;c12.468-11.829,24.936-23.658,37.404-35.487c-10.968,24.234-21.9,48.486-33.029,72.645&#10;&#9;&#9;&#9;&#9;&#9;C766.748,687.26,755.33,710.633,741.815,732.811z"/>
				<path style="fill:#F678C4;" d="M770.091,626.654l-0.096-1.405l52.437-49.133l-14.041,27.531&#10;&#9;&#9;&#9;&#9;&#9;c-9.103,20.125-18.515,40.935-27.916,61.342c-9.737,21.139-21.625,45.922-35.971,69.462l-7.873,10.111L770.091,626.654z&#10;&#9;&#9;&#9;&#9;&#9; M776.252,627.997c-0.028,0.121-0.059,0.242-0.095,0.361l-23.494,79.016c8.349-15.637,15.686-31.12,22.09-45.022l0,0&#10;&#9;&#9;&#9;&#9;&#9;c8.874-19.265,17.763-38.896,26.391-57.973L776.252,627.997z"/>
			</g>
			<g>
				<path style="fill:#E70095;" d="M699.229,661.49l-0.162-29.373c0.056,0,0.104,0.014,0.161,0.01&#10;&#9;&#9;&#9;&#9;&#9;c27.913-1.638,41.164-2.777,68.635-4.401L735.896,735.93C723.673,711.117,711.451,686.304,699.229,661.49z"/>
				<path style="fill:#E70095;" d="M696.407,662.899l-0.323-0.657l-0.185-33.35l3.224,0.057c0.04,0.001,0.079,0.002,0.118,0.004&#10;&#9;&#9;&#9;&#9;&#9;c14.062-0.827,24.574-1.537,34.74-2.225c9.914-0.671,20.164-1.364,33.698-2.164l4.484-0.265l-35.531,120.265L696.407,662.899z&#10;&#9;&#9;&#9;&#9;&#9; M734.403,633.053c-9.544,0.646-19.39,1.312-32.169,2.073l0.141,25.614l32.785,66.558l28.403-96.138&#10;&#9;&#9;&#9;&#9;&#9;C752.216,631.847,743.178,632.459,734.403,633.053z"/>
			</g>
			<g>
				<path style="fill:#E13EAF;" d="M694.218,653.895c-7.673-11.205-15.345-22.411-23.018-33.616&#10;&#9;&#9;&#9;&#9;&#9;c3.972-9.965,7.943-19.93,11.914-29.896c3.605,13.296,7.21,26.593,10.815,39.889c0.039,0.143,0.104,0.26,0.159,0.386&#10;&#9;&#9;&#9;&#9;&#9;C694.132,638.404,694.175,646.15,694.218,653.895z"/>
				<path style="fill:#E13EAF;" d="M667.653,620.672l16.031-40.228l13.244,48.849l0.308,0.692l0.189,34.168L667.653,620.672z&#10;&#9;&#9;&#9;&#9;&#9; M690.89,631.097l-8.345-30.776l-7.797,19.564l16.263,23.751l-0.068-12.358C690.924,631.22,690.907,631.159,690.89,631.097z&#10;&#9;&#9;&#9;&#9;&#9; M696.973,629.46c-0.002-0.007-0.003-0.015-0.005-0.021L696.973,629.46z"/>
			</g>
			<g>
				<path style="fill:#85276B;" d="M624.911,610.782c13.973,4.254,27.946,8.508,41.92,12.761c0.223,0.068,0.437,0.099,0.646,0.111&#10;&#9;&#9;&#9;&#9;&#9;c8.949,13.069,17.897,26.138,26.846,39.207c0.117,0.581,0.423,1.038,0.815,1.387c11.754,23.711,23.508,47.423,35.262,71.134&#10;&#9;&#9;&#9;&#9;&#9;C694.585,694.405,659.417,652.867,624.911,610.782z"/>
				<path style="fill:#85276B;" d="M728.027,737.456c-35.664-40.806-71.177-82.753-105.552-124.677l-4.796-6.12l50.009,13.853&#10;&#9;&#9;&#9;&#9;&#9;l1.517,0.092l28.078,41.007l0.082,0.404l0.322,0.287l38.944,82.26L728.027,737.456z M691.436,664.223l-25.861-37.77&#10;&#9;&#9;&#9;&#9;&#9;l-31.619-9.625c27.076,32.886,54.812,65.736,82.736,97.995l-24.157-48.731C692.046,665.538,691.675,664.907,691.436,664.223z&#10;&#9;&#9;&#9;&#9;&#9; M667.755,620.531c-0.002,0-0.004-0.001-0.006-0.001L667.755,620.531z"/>
			</g>
			<g>
				<path style="fill:#CB2B99;" d="M620.737,604.297c-1.787-44.495-3.574-88.989-5.361-133.484c0.656,0.167,1.386,0.088,2.077-0.419&#10;&#9;&#9;&#9;&#9;&#9;c6.384-4.675,12.767-9.35,19.151-14.024c0.012,0.008,0.018,0.017,0.03,0.025c16.343,10.331,32.687,20.662,49.03,30.993&#10;&#9;&#9;&#9;&#9;&#9;c0.746,31.27-0.55,62.552-3.769,93.661c-0.372,0.248-0.689,0.62-0.898,1.144c-4.792,12.024-9.584,24.049-14.376,36.073&#10;&#9;&#9;&#9;&#9;&#9;C651.327,613.609,636.032,608.953,620.737,604.297z"/>
				<path style="fill:#CB2B99;" d="M617.679,606.659l-5.62-139.941l3.772,0.96l20.688-15.15l1.832,1.222l50.422,31.876l0.041,1.687&#10;&#9;&#9;&#9;&#9;&#9;c0.739,30.996-0.534,62.644-3.785,94.062l-0.152,1.475l-1.021,0.68l-15.381,38.594L617.679,606.659z M682.553,489.147&#10;&#9;&#9;&#9;&#9;&#9;l-45.822-28.965l-17.419,12.757c-0.221,0.16-0.447,0.304-0.681,0.43l5.163,128.566l40.974,12.473l13.304-33.383&#10;&#9;&#9;&#9;&#9;&#9;c0.206-0.516,0.478-0.989,0.805-1.411C681.958,549.394,683.194,518.974,682.553,489.147z"/>
			</g>
		</g>
	</g>
</g>
<g transform="matrix(1, 0, 0, 1, -15.34013587395009, -19.52380935808108)">
	
		<image style="overflow:visible;" width="1536" height="1722" transform="matrix(0.24 0 0 0.24 -17.52 -21.44)" xlink:href="480505C60381DEA2.png">
	</image>
	<g>
		<g>
			<g>
				<path style="fill:#CF0A2C;" d="M144.468,108.235c-18.958,28.565-37.916,57.13-56.874,85.695&#10;&#9;&#9;&#9;&#9;&#9;c-0.329-11.502-0.658-23.004-0.987-34.505c21.735-43.485,43.469-86.971,65.204-130.456c-2.143,25.673-4.287,51.346-6.43,77.019&#10;&#9;&#9;&#9;&#9;&#9;C144.485,106.541,144.254,107.41,144.468,108.235z"/>
				<path style="fill:#CF0A2C;" d="M83.436,158.724l71.394-144.083l-6.442,93.191l-0.664,0.41l0.146,0.562L84.73,203.943&#10;&#9;&#9;&#9;&#9;&#9;L83.436,158.724z M142.343,104.528l4.968-59.509L89.779,160.126l0.68,23.791l50.793-76.534&#10;&#9;&#9;&#9;&#9;&#9;C141.313,106.336,141.69,105.347,142.343,104.528z"/>
			</g>
			<g>
				<path style="fill:#AC162C;" d="M249.557,57.12c-32.995,15.467-65.991,30.934-98.986,46.4c2.347-28.108,4.693-56.217,7.04-84.325&#10;&#9;&#9;&#9;&#9;&#9;C188.26,31.837,218.909,44.478,249.557,57.12z"/>
				<path style="fill:#AC162C;" d="M154.831,14.641l102.541,42.294L146.98,108.683L154.831,14.641z M160.392,23.749l-6.228,74.607&#10;&#9;&#9;&#9;&#9;&#9;l87.579-41.054L160.392,23.749z"/>
			</g>
			<g>
				<path style="fill:#F7323F;" d="M256.528,201.337c-0.072,0.229-0.102,0.473-0.11,0.72c-14.448,8.086-28.896,16.171-43.344,24.257&#10;&#9;&#9;&#9;&#9;&#9;l-39.399,3.638c-0.262,0.024-0.494,0.09-0.711,0.172c-0.519,0.17-0.996,0.526-1.335,1.142c-5,9.104-10,18.209-15,27.313&#10;&#9;&#9;&#9;&#9;&#9;l-68.303-56.747c20.438-30.795,40.875-61.589,61.313-92.384c33.831-15.858,67.661-31.717,101.492-47.575&#10;&#9;&#9;&#9;&#9;&#9;C252.93,108.36,254.729,154.849,256.528,201.337z"/>
				<path style="fill:#F7323F;" d="M147.503,106.97l109.869-50.035l2.325,144.823l-0.13,0.419l-0.056,1.759l-45.481,25.454&#10;&#9;&#9;&#9;&#9;&#9;l-39.794,3.674l-16.683,30.377l-73.414-60.993L147.503,106.97z M168.868,229.75c0.688-1.253,1.74-2.15,3.047-2.597&#10;&#9;&#9;&#9;&#9;&#9;c0.5-0.183,0.984-0.293,1.471-0.338l38.733-3.576l41.211-23.064l-5.163-133.434l-96.392,45.184l-59.261,89.292l63.19,52.5&#10;&#9;&#9;&#9;&#9;&#9;L168.868,229.75z M173.959,233.089c0.001,0,0.001-0.001,0.002-0.001L173.959,233.089z"/>
			</g>
			<g>
				<path style="fill:#FFB0C0;" d="M175.389,234.807c11.246-1.038,22.492-2.077,33.738-3.115l-24.307,27.644&#10;&#9;&#9;&#9;&#9;&#9;c-0.049,0.055-0.079,0.114-0.122,0.17c-8.013,0.709-16.027,1.418-24.04,2.127C165.567,252.691,170.478,243.749,175.389,234.807z&#10;&#9;&#9;&#9;&#9;&#9;"/>
				<path style="fill:#FFB0C0;" d="M173.432,231.824l43.287-3.996l-29.428,33.467l-0.918,1.225l-31.32,2.77L173.432,231.824z&#10;&#9;&#9;&#9;&#9;&#9; M201.534,235.556l-24.19,2.233l-11.085,20.185l16.875-1.492L201.534,235.556z M187.359,261.194&#10;&#9;&#9;&#9;&#9;&#9;c0.005-0.006,0.009-0.012,0.013-0.018L187.359,261.194z"/>
			</g>
			<g>
				<path style="fill:#FF9BB1;" d="M300.618,201.935c-12.906-0.637-25.813-1.273-38.719-1.91c-0.136-0.056-0.276-0.104-0.422-0.134&#10;&#9;&#9;&#9;&#9;&#9;c-1.736-44.872-2.368-98.085-4.105-142.957C272.155,102.489,285.834,156.382,300.618,201.935z"/>
				<path style="fill:#FF9BB1;" d="M257.372,56.935l47.652,148.371l-43.28-2.134l-0.574-0.05l-0.421-0.164l-2.324-0.477&#10;&#9;&#9;&#9;&#9;&#9;L257.372,56.935z M260.295,87.891l4.222,109.11l31.695,1.563L260.295,87.891z"/>
			</g>
			<g>
				<path style="fill:#FFE3E3;" d="M297.938,206.793c-28.562,25.594-61.366,61.577-91.023,89.855&#10;&#9;&#9;&#9;&#9;&#9;c18.785-30.522,37.569-61.043,56.354-91.565C274.825,205.653,286.381,206.223,297.938,206.793z"/>
				<path style="fill:#FFE3E3;" d="M261.563,201.845l44.185,2.178l-5.708,5.115c-16.323,14.628-34.383,33.014-51.847,50.795&#10;&#9;&#9;&#9;&#9;&#9;c-12.997,13.233-26.438,26.915-39.105,38.994l-17.609,16.79L261.563,201.845z M264.974,208.321l-41.896,68.073&#10;&#9;&#9;&#9;&#9;&#9;c6.874-6.88,13.808-13.94,20.619-20.875c15.56-15.842,31.59-32.163,46.515-45.953L264.974,208.321z"/>
			</g>
			<g>
				<path style="fill:#FF9BB1;" d="M137.134,331.385c6.997-21.505,13.995-43.01,20.993-64.516l27.106-2.398&#10;&#9;&#9;&#9;&#9;&#9;c0.763-0.067,1.33-0.408,1.715-0.877c0.515-0.05,1.033-0.286,1.483-0.798c9.478-10.779,18.956-21.558,28.434-32.337&#10;&#9;&#9;&#9;&#9;&#9;c0.231-0.262,0.389-0.537,0.493-0.815c12.677-7.095,25.355-14.19,38.033-21.285c-20.307,32.995-40.613,65.99-60.92,98.984&#10;&#9;&#9;&#9;&#9;&#9;C175.358,315.357,156.246,323.371,137.134,331.385z"/>
				<path style="fill:#FF9BB1;" d="M155.776,263.915l28.932-2.56l0.633-0.773l0.917-0.087l28.186-32.055l0.367-0.982l49.609-27.764&#10;&#9;&#9;&#9;&#9;&#9;l-72.941,116.023l-59.469,21.232L155.776,263.915z M246.359,217.022l-26.673,14.928c-0.138,0.204-0.29,0.4-0.456,0.588&#10;&#9;&#9;&#9;&#9;&#9;l-28.432,32.335c-0.652,0.743-1.435,1.278-2.305,1.584c-0.843,0.652-1.869,1.053-2.983,1.152l-25.032,2.215l-18.221,55.997&#10;&#9;&#9;&#9;&#9;&#9;l50.061-20.991L246.359,217.022z"/>
			</g>
			<g>
				<path style="fill:#FD5373;" d="M56.674,330.753c31.694-20.135,63.388-40.27,95.082-60.404&#10;&#9;&#9;&#9;&#9;&#9;c-6.896,21.193-13.792,42.387-20.688,63.581c-0.255,0.107-0.51,0.214-0.765,0.321c-0.187,0.078-0.355,0.171-0.507,0.276&#10;&#9;&#9;&#9;&#9;&#9;C105.421,333.268,81.048,332.01,56.674,330.753z"/>
				<path style="fill:#FD5373;" d="M157.462,262.991l-23.847,73.289l-2.072,0.866l-0.853,0.579l-83.894-2.889L157.462,262.991z&#10;&#9;&#9;&#9;&#9;&#9; M146.049,277.706l-79.35,50.41l61.908,3.193L146.049,277.706z"/>
			</g>
			<g>
				<path style="fill:#AC162C;" d="M30.961,243.844c16.774-13.828,34.463-26.476,52.948-37.918c0.249-0.154,0.438-0.335,0.6-0.526&#10;&#9;&#9;&#9;&#9;&#9;c0.097,0.003,0.193-0.006,0.29-0.014c23.094,19.187,46.188,38.374,69.283,57.561L48.946,329.738&#10;&#9;&#9;&#9;&#9;&#9;C42.951,301.107,36.956,272.475,30.961,243.844z"/>
				<path style="fill:#AC162C;" d="M27.487,242.625l1.47-1.212c16.7-13.767,34.6-26.588,53.198-38.106l0.939-1.095l1.455,0.038&#10;&#9;&#9;&#9;&#9;&#9;c-0.01-0.001-0.017-0.001-0.017-0.001c0-0.001,0.006-0.002,0.021-0.003l1.274-0.1l71.634,60.845L46.795,334.836L27.487,242.625z&#10;&#9;&#9;&#9;&#9;&#9; M84.522,209.252c-17.476,10.88-34.314,22.919-50.087,35.814l16.663,79.573l97.645-62.032L84.522,209.252z"/>
			</g>
			<g>
				<path style="fill:#EB0029;" d="M40.693,199.596c0.245-0.107,0.488-0.244,0.716-0.447c13.437-11.896,26.874-23.791,40.311-35.687&#10;&#9;&#9;&#9;&#9;&#9;c0.358,12.536,0.717,25.072,1.075,37.607c0.001,0.027,0.006,0.051,0.01,0.076c-0.029,0.043-0.057,0.086-0.086,0.129&#10;&#9;&#9;&#9;&#9;&#9;c-0.448-0.027-0.927,0.079-1.411,0.379c-17.262,10.685-33.796,22.442-49.594,35.175C34.707,224.418,37.7,212.007,40.693,199.596&#10;&#9;&#9;&#9;&#9;&#9;z"/>
				<path style="fill:#EB0029;" d="M37.631,198.858l0.377-1.527l1.385-0.604l45.282-40.089l1.263,44.167l0.156,1.048l-1.756,2.676&#10;&#9;&#9;&#9;&#9;&#9;l-1.54-0.093c-16.858,10.446-33.38,22.169-49.108,34.846l-6.205,3.343L37.631,198.858z M78.764,170.286l-35.26,31.216&#10;&#9;&#9;&#9;&#9;&#9;c-0.013,0.011-0.025,0.023-0.038,0.034l-6.551,27.163c13.783-10.699,28.1-20.661,42.67-29.683L78.764,170.286z M39.322,196.79&#10;&#9;&#9;&#9;&#9;&#9;l0.003-0.002C39.323,196.789,39.323,196.79,39.322,196.79z"/>
			</g>
			<g>
				<path style="fill:#7A232E;" d="M59.65,123.232c28.759-31.224,57.519-62.447,86.278-93.671&#10;&#9;&#9;&#9;&#9;&#9;c-21.09,42.195-42.18,84.391-63.27,126.586c-0.236,0.105-0.469,0.242-0.69,0.438c-13.257,11.736-26.514,23.472-39.77,35.208&#10;&#9;&#9;&#9;&#9;&#9;C48.016,168.94,53.833,146.086,59.65,123.232z"/>
				<path style="fill:#7A232E;" d="M56.794,121.684l98.037-107.043L85.476,157.556l-0.551,1.003l-0.929,0.439l-45.987,38.332&#10;&#9;&#9;&#9;&#9;&#9;L56.794,121.684z M133.148,48.087l-70.641,76.694l-14.729,57.868l32.1-28.417c0.119-0.106,0.242-0.207,0.369-0.302&#10;&#9;&#9;&#9;&#9;&#9;L133.148,48.087z M83.942,159.025L83.942,159.025L83.942,159.025z M84.056,158.946c0-0.001,0.001-0.002,0.001-0.002&#10;&#9;&#9;&#9;&#9;&#9;L84.056,158.946z"/>
			</g>
		</g>
	</g>
</g>
<g>
	
		<image style="overflow:visible;" width="1151" height="1437" transform="matrix(0.24 0 0 0.24 826.56 455.44)" xlink:href="480505C60381DEA3.png">
	</image>
	<g>
		<g>
			<g>
				<path style="fill:#CF0A2C;" d="M878.604,605.948c22.538-6.351,45.077-12.702,67.615-19.054&#10;&#9;&#9;&#9;&#9;&#9;c12.346,4.588,24.692,9.176,37.039,13.763c0.095,0.035,0.179,0.039,0.269,0.061c4.031,25.359,8.062,50.718,12.092,76.076&#10;&#9;&#9;&#9;&#9;&#9;c-14.38-4.712-28.76-9.423-43.141-14.135c-0.795-0.261-1.458-0.12-1.955,0.241C926.551,643.917,902.577,624.932,878.604,605.948&#10;&#9;&#9;&#9;&#9;&#9;z"/>
				<path style="fill:#CF0A2C;" d="M951.911,665.79l-1.465,1.068l-78.698-60.901l74.606-22.373l37.809,14.049&#10;&#9;&#9;&#9;&#9;&#9;c0.04,0.009,0.081,0.018,0.122,0.028l2.027,0.501l13.229,83.233L951.911,665.79z M946.085,590.205l-60.69,17.102l65.787,52.098&#10;&#9;&#9;&#9;&#9;&#9;c0.746-0.07,1.518,0.014,2.278,0.264l38.24,12.528l-10.987-69.125L946.085,590.205z M984.38,597.714&#10;&#9;&#9;&#9;&#9;&#9;c-0.017-0.006-0.033-0.012-0.049-0.018L984.38,597.714z"/>
			</g>
			<g>
				<path style="fill:#FF9BB1;" d="M952.701,584.005c20.993-6.354,41.986-12.708,62.979-19.061&#10;&#9;&#9;&#9;&#9;&#9;c-10.214,10.007-20.428,20.013-30.643,30.02c-0.404,0.131-0.79,0.349-1.112,0.645&#10;&#9;&#9;&#9;&#9;&#9;C973.517,591.741,963.109,587.873,952.701,584.005z"/>
				<path style="fill:#FF9BB1;" d="M942.836,583.699l83.6-26.702l-39.723,40.735l-0.685,0.222l-1.394,1.278L942.836,583.699z&#10;&#9;&#9;&#9;&#9;&#9; M962.565,584.311l20.913,7.771l20.828-20.404L962.565,584.311z"/>
			</g>
			<g>
				<path style="fill:#7A232E;" d="M896.18,536.983c14.976,15.386,29.952,30.771,44.928,46.157&#10;&#9;&#9;&#9;&#9;&#9;c-21.552,6.073-43.104,12.147-64.657,18.22C883.027,579.901,889.603,558.442,896.18,536.983z"/>
				<path style="fill:#7A232E;" d="M894.727,530.974l52.331,53.762l-75.31,21.222L894.727,530.974z M897.633,542.991l-16.478,53.77&#10;&#9;&#9;&#9;&#9;&#9;l54.003-15.217L897.633,542.991z"/>
			</g>
			<g>
				<path style="fill:#F7323F;" d="M1019.123,558.678c-24.422,7.391-48.843,14.783-73.265,22.174l-47.77-49.077&#10;&#9;&#9;&#9;&#9;&#9;c9.516-11.971,19.032-23.943,28.548-35.914C957.466,516.801,988.294,537.739,1019.123,558.678z"/>
				<path style="fill:#F7323F;" d="M893.897,531.986l32.092-40.373l100.446,65.384l-81.498,27.426L893.897,531.986z&#10;&#9;&#9;&#9;&#9;&#9; M927.284,500.109l-25.005,31.457l44.5,45.716l65.114-19.706L927.284,500.109z"/>
			</g>
			<g>
				<path style="fill:#FF6989;" d="M1029.587,685.815c-9.305-2.879-18.611-5.758-27.916-8.638c-0.356-0.11-0.682-0.135-0.983-0.105&#10;&#9;&#9;&#9;&#9;&#9;c-4.146-26.085-8.293-52.171-12.439-78.256c12.217-11.969,24.434-23.937,36.65-35.906&#10;&#9;&#9;&#9;&#9;&#9;c12.187,41.211,21.842,83.125,28.929,125.511C1045.748,687.553,1037.668,686.684,1029.587,685.815z"/>
				<path style="fill:#FF6989;" d="M1028.948,688.915l-28.093-8.692l-2.811,0.282l-13.161-82.8l41.552-40.708l1.485,5.021&#10;&#9;&#9;&#9;&#9;&#9;c12.166,41.141,21.928,83.494,29.015,125.885l0.685,4.096L1028.948,688.915z M991.616,599.93l11.843,74.504l26.769,8.282&#10;&#9;&#9;&#9;&#9;&#9;l19.801,2.129c-6.688-39.044-15.651-78.023-26.675-116.009L991.616,599.93z"/>
			</g>
			<g>
				<path style="fill:#7A232E;" d="M1030.888,711.253c0.735-6.691,1.47-13.381,2.205-20.072c5.844,0.628,11.687,1.257,17.531,1.885&#10;&#9;&#9;&#9;&#9;&#9;C1043.626,698.675,1037.039,704.731,1030.888,711.253z"/>
				<path style="fill:#7A232E;" d="M1030.305,687.713l27.315,4.285l-5.026,3.525c-6.909,5.538-13.441,11.557-19.414,17.891&#10;&#9;&#9;&#9;&#9;&#9;l-4.921,5.196L1030.305,687.713z M1035.881,694.648l-0.875,7.963c2.556-2.465,5.189-4.871,7.89-7.208L1035.881,694.648z"/>
			</g>
			<g>
				<path style="fill:#CF0A2C;" d="M977.205,739.956c8.231-18.827,16.463-37.654,24.694-56.481c0.34-0.168,0.625-0.423,0.835-0.744&#10;&#9;&#9;&#9;&#9;&#9;c8.221,2.544,16.441,5.087,24.662,7.631c0.218,0.124,0.465,0.224,0.766,0.273c-0.948,8.635-1.897,17.269-2.845,25.904&#10;&#9;&#9;&#9;&#9;&#9;C1009.28,724.345,993.242,732.15,977.205,739.956z"/>
				<path style="fill:#CF0A2C;" d="M1000.855,680.223l27.799,7.231l0.17,0.097l2.795,0.454l-3.362,30.605l-56.408,27.54&#10;&#9;&#9;&#9;&#9;&#9;L1000.855,680.223z M1024.751,692.841l-20.708-6.407l-20.525,46.946l38.857-18.912L1024.751,692.841z"/>
			</g>
			<g>
				<path style="fill:#F7323F;" d="M972.134,739.126c-5.467-23.385-10.934-46.769-16.402-70.154&#10;&#9;&#9;&#9;&#9;&#9;c13.725,4.497,27.45,8.994,41.176,13.491C988.65,701.351,980.392,720.239,972.134,739.126z"/>
				<path style="fill:#F7323F;" d="M951.39,664.235l49.793,16.314l-29.333,65.601L951.39,664.235z M960.075,673.71l12.969,55.472&#10;&#9;&#9;&#9;&#9;&#9;l19.589-44.804L960.075,673.71z"/>
			</g>
			<g>
				<path style="fill:#AC162C;" d="M967.715,743.11c-16.323-7.99-32.645-15.979-48.967-23.969c0.12-0.415,0.1-0.895-0.131-1.43&#10;&#9;&#9;&#9;&#9;&#9;c-15.287-35.473-31.582-76.281-46.869-111.754c25.159,19.008,51.324,43.351,76.483,62.359c0.413,0.312,0.851,0.474,1.287,0.539&#10;&#9;&#9;&#9;&#9;&#9;C955.583,693.606,961.649,718.358,967.715,743.11z"/>
				<path style="fill:#AC162C;" d="M914.85,720.773l-43.102-114.816l78.424,59.807l2.055,0.309l19.624,80.078L914.85,720.773z&#10;&#9;&#9;&#9;&#9;&#9; M946.181,670.785l-65.566-49.535l41.055,95.264c0.09,0.208,0.166,0.419,0.229,0.63l40.977,20.057l-16.191-66.071&#10;&#9;&#9;&#9;&#9;&#9;C946.512,671.023,946.344,670.908,946.181,670.785z"/>
			</g>
		</g>
	</g>
</g>
<g>
	
		<image style="overflow:visible;" width="1222" height="2331" transform="matrix(0.24 0 0 0.24 330.24 228.64)" xlink:href="480505C60381DEAD.png">
	</image>
	<g>
		<g>
			<g>
				<path style="fill:#FADF8D;" d="M573.296,357.949c-7.464,5.495-24.61,19.539-25.83,20.807c-0.212,0.22-0.372,0.469-0.507,0.727&#10;&#9;&#9;&#9;&#9;&#9;c-6.784-5.841-13.567-11.682-20.351-17.523c-10.943-27.744-21.886-55.488-32.829-83.232&#10;&#9;&#9;&#9;&#9;&#9;C520.286,305.135,546.791,331.542,573.296,357.949z"/>
				<path style="fill:#FADF8D;" d="M523.943,363.754l-37.413-99.081l91.513,93.621l-2.843,2.093&#10;&#9;&#9;&#9;&#9;&#9;c-7.443,5.48-24.221,19.254-25.427,20.474l-1.842,3.546L523.943,363.754z M502.185,291.484l27.09,68.683l17.495,15.063&#10;&#9;&#9;&#9;&#9;&#9;c4.17-3.578,14.996-12.372,21.81-17.598L502.185,291.484z"/>
			</g>
			<g>
				<path style="fill:#FFC656;" d="M520.846,360.877c-0.199,0.165-0.387,0.362-0.546,0.625&#10;&#9;&#9;&#9;&#9;&#9;c-6.826,11.317-13.652,22.633-20.478,33.95c-17.842,4.217-35.684,8.434-53.526,12.651&#10;&#9;&#9;&#9;&#9;&#9;c13.262-45.123,26.523-90.246,39.785-135.369C497.669,302.116,509.257,331.497,520.846,360.877z"/>
				<path style="fill:#FFC656;" d="M486.53,264.673l37.257,95.11l0.754,2.013l-1.581,1.35l-21.096,34.974l-60.084,14.202&#10;&#9;&#9;&#9;&#9;&#9;L486.53,264.673z M517.296,360.431l-30.778-78.036L450.81,403.888l46.969-11.102L517.296,360.431z"/>
			</g>
			<g>
				<path style="fill:#FFA400;" d="M545.659,384.774c-8.232,26.958-14.715,54.383-19.382,82.128&#10;&#9;&#9;&#9;&#9;&#9;c-7.629-22.589-15.259-45.177-22.888-67.766c6.713-11.13,13.427-22.259,20.14-33.389c7.317,6.3,14.634,12.6,21.951,18.9&#10;&#9;&#9;&#9;&#9;&#9;C545.537,384.697,545.599,384.73,545.659,384.774z"/>
				<path style="fill:#FFA400;" d="M499.953,398.78l22.796-37.793l24.704,21.27l1.844,1.363l-0.618,2.024&#10;&#9;&#9;&#9;&#9;&#9;c-8.188,26.816-14.68,54.321-19.293,81.751l-2.08,12.367L499.953,398.78z M524.308,370.508l-17.484,28.986l18.504,54.785&#10;&#9;&#9;&#9;&#9;&#9;c4.324-23.001,9.938-45.977,16.736-68.483L524.308,370.508z M547.359,382.195c-0.006-0.004-0.011-0.008-0.017-0.011&#10;&#9;&#9;&#9;&#9;&#9;L547.359,382.195z"/>
			</g>
			<g>
				<path style="fill:#EA7200;" d="M380.023,332.109l101.248-60.688c-13.11,44.607-26.22,89.214-39.33,133.821&#10;&#9;&#9;&#9;&#9;&#9;C421.302,380.864,400.662,356.487,380.023,332.109z"/>
				<path style="fill:#EA7200;" d="M375.298,331.346l111.231-66.673l-43.208,147.016L375.298,331.346z M384.747,332.873&#10;&#9;&#9;&#9;&#9;&#9;l55.812,65.92l35.452-120.625L384.747,332.873z"/>
			</g>
			<g>
				<path style="fill:#F7B334;" d="M496.363,401.264c-0.918,2.196,1.798,4.227,3.574,3.113l24.432,72.337&#10;&#9;&#9;&#9;&#9;&#9;c-0.33,0.262-0.604,0.627-0.765,1.131c-22.076,69.114-44.151,138.229-66.227,207.343c-7.479-11.204-14.958-22.408-22.438-33.612&#10;&#9;&#9;&#9;&#9;&#9;c0.046-0.159,0.08-0.328,0.096-0.51c1.838-21.896,3.676-43.792,5.513-65.689c0.031-0.084,0.075-0.153,0.099-0.245l15.851-60.404&#10;&#9;&#9;&#9;&#9;&#9;c0.268-1.02-0.106-1.867-0.739-2.432c-5.467-18.357-10.935-36.713-16.402-55.07c-0.027-0.09-0.068-0.164-0.102-0.247&#10;&#9;&#9;&#9;&#9;&#9;c2.194-17.925,4.389-35.849,6.583-53.774C462.68,409.225,479.522,405.245,496.363,401.264z"/>
				<path style="fill:#F7B334;" d="M432.296,653.241l-0.787-1.092l0.386-1.332l5.547-66.093l0.141-0.381&#10;&#9;&#9;&#9;&#9;&#9;c0.019-0.051,0.039-0.1,0.059-0.149l15.715-59.885l-0.379-0.339l-16.608-55.763l-0.336-0.827l6.935-56.646l58.626-13.857&#10;&#9;&#9;&#9;&#9;&#9;L500,400.695l1.658-1.04l26.378,78.1l-1.48,1.174l-68.163,213.405L432.296,653.241z M497.725,407.641&#10;&#9;&#9;&#9;&#9;&#9;c-0.913-0.18-1.801-0.585-2.576-1.209c-0.523-0.42-0.955-0.904-1.289-1.429l-45.152,10.673l-6.241,50.982l16.121,54.127&#10;&#9;&#9;&#9;&#9;&#9;c1.042,1.327,1.402,3.022,0.962,4.699L443.7,585.888c-0.015,0.057-0.031,0.112-0.048,0.165l-5.438,64.803l18.148,27.186&#10;&#9;&#9;&#9;&#9;&#9;l64.233-201.104c0.08-0.25,0.177-0.493,0.29-0.726L497.725,407.641z"/>
			</g>
			<g>
				<path style="fill:#FADF8D;" d="M504.062,555.418c1.82,10.533,3.64,21.066,5.46,31.599c-6.304,3.507-12.608,7.013-18.913,10.519&#10;&#9;&#9;&#9;&#9;&#9;C495.093,583.497,499.577,569.457,504.062,555.418z"/>
				<path style="fill:#FADF8D;" d="M504.977,542.227l8.014,46.386l-27.763,15.442L504.977,542.227z M503.147,568.608l-7.158,22.409&#10;&#9;&#9;&#9;&#9;&#9;l10.062-5.596L503.147,568.608z"/>
			</g>
			<g>
				<path style="fill:#FFC656;" d="M437.469,577.628c-5.19-25.15-10.38-50.301-15.571-75.451c0.128-0.166,0.245-0.348,0.338-0.561&#10;&#9;&#9;&#9;&#9;&#9;c4.393-10.073,8.785-20.146,13.178-30.22c5.147,17.283,10.295,34.566,15.443,51.849c0.128,0.429,0.345,0.769,0.61,1.042&#10;&#9;&#9;&#9;&#9;&#9;C446.801,542.068,442.135,559.848,437.469,577.628z"/>
				<path style="fill:#FFC656;" d="M418.81,502.778l-0.267-1.35l0.819-1.067l16.612-38.094l17.875,60.015l1.097,1.135&#10;&#9;&#9;&#9;&#9;&#9;l-17.845,67.998L418.81,502.778z M447.831,524.095l-12.977-43.569l-9.646,22.12l12.628,61.194l10.25-39.056&#10;&#9;&#9;&#9;&#9;&#9;C447.987,524.562,447.902,524.333,447.831,524.095z M419.336,500.423l0-0.002C419.337,500.422,419.336,500.422,419.336,500.423z&#10;&#9;&#9;&#9;&#9;&#9;"/>
			</g>
			<g>
				<path style="fill:#B25000;" d="M388.785,398.068c-2.459-19.32-5.263-38.597-8.351-57.832&#10;&#9;&#9;&#9;&#9;&#9;c19.939,23.551,39.879,47.101,59.818,70.652c-0.194,0.823,0.01,1.735,0.556,2.348c-1.998,16.321-3.996,32.642-5.994,48.962&#10;&#9;&#9;&#9;&#9;&#9;c-0.578,0.223-18.369,38.263-18.123,39.456c5.694,27.591,17.976,84.367,18.771,84.57c-1.733,20.643-3.465,41.286-5.198,61.929&#10;&#9;&#9;&#9;&#9;&#9;c0,0-26.599-24.543-27.219-24.531C403.03,548.245,398.307,472.878,388.785,398.068z"/>
				<path style="fill:#B25000;" d="M428.094,650.372c-8.714-8.041-22.666-20.803-26.09-23.669l-2.108,0.042l0-3.122&#10;&#9;&#9;&#9;&#9;&#9;c-0.015-75.319-4.805-151.081-14.236-225.178c-2.367-18.594-5.172-38.02-8.337-57.737l-2.023-9.362l68.37,78.761l-0.311,1.316&#10;&#9;&#9;&#9;&#9;&#9;l0.743,0.833l-6.38,52.113l-0.728,0.281c-2.707,5.143-15.432,32.403-17.074,37.077c5.644,27.307,15.652,73.358,17.993,81.96&#10;&#9;&#9;&#9;&#9;&#9;l0.905,0.231l-5.947,70.859L428.094,650.372z M429.922,577.483c-1.283-5.488-2.996-13.103-5.089-22.634&#10;&#9;&#9;&#9;&#9;&#9;c-3.717-16.919-8.23-38.054-11.23-52.593c-0.247-1.196-0.371-1.796,8.969-21.949c5.532-11.937,7.889-16.887,9.186-19.053&#10;&#9;&#9;&#9;&#9;&#9;l5.797-47.355c-0.284-0.618-0.456-1.292-0.507-1.977l-51.766-61.142c2.473,15.995,4.696,31.729,6.629,46.913&#10;&#9;&#9;&#9;&#9;&#9;c9.404,73.878,14.209,149.403,14.283,224.503c2.774,2.201,8.454,7.346,21.465,19.336l4.603-54.84&#10;&#9;&#9;&#9;&#9;&#9;C431.702,585.091,431.059,582.345,429.922,577.483z"/>
			</g>
			<g>
				<path style="fill:#EA7200;" d="M403.034,633.258c0.007-1.302,0-2.603,0.004-3.905c8.822,8.272,17.643,16.543,26.465,24.815&#10;&#9;&#9;&#9;&#9;&#9;c0.527,0.494,1.131,0.697,1.722,0.707c7.502,11.238,15.004,22.476,22.506,33.714c0.221,0.332,0.489,0.585,0.783,0.772&#10;&#9;&#9;&#9;&#9;&#9;c1.025,9.631,2.051,19.262,3.076,28.893L403.034,633.258z"/>
				<path style="fill:#EA7200;" d="M399.88,634.126l0.004-0.883c0.003-0.715,0.003-1.43,0.002-2.144l0.023-8.934l31.624,29.653&#10;&#9;&#9;&#9;&#9;&#9;l1.42,0.02l23.376,35.019l1.164,0.741l4.633,43.505L399.88,634.126z M451.089,690.253l-21.804-32.664&#10;&#9;&#9;&#9;&#9;&#9;c-0.72-0.263-1.384-0.674-1.969-1.221l-14.404-13.505l40.144,62.542l-1.555-14.606&#10;&#9;&#9;&#9;&#9;&#9;C451.354,690.627,451.216,690.445,451.089,690.253z"/>
			</g>
			<g>
				<path style="fill:#F38B00;" d="M529.044,638.841c-21.632,29.876-43.263,59.753-64.895,89.629l-0.554-0.863&#10;&#9;&#9;&#9;&#9;&#9;c-1.258-11.812-2.515-23.624-3.773-35.436c0.424-0.26,0.775-0.671,0.968-1.276c9.22-28.865,18.439-57.73,27.659-86.595&#10;&#9;&#9;&#9;&#9;&#9;c0.067-0.031,0.132-0.049,0.2-0.087c7.265-4.041,14.53-8.082,21.795-12.122c0.313,0.884,1.037,1.348,1.839,1.449&#10;&#9;&#9;&#9;&#9;&#9;C517.87,608.639,523.457,623.74,529.044,638.841z"/>
				<path style="fill:#F38B00;" d="M460.537,728.625l-4.049-38.028l1.367-0.839l27.993-87.639l1.235-0.578&#10;&#9;&#9;&#9;&#9;&#9;c0.045-0.021,0.09-0.041,0.136-0.061l24.968-13.887l1.053,2.98l1.358,0.172l17.964,48.557l-68.57,94.704L460.537,728.625z&#10;&#9;&#9;&#9;&#9;&#9; M509.83,595.956l-18.75,10.428L463.798,691.8c-0.167,0.523-0.401,1.005-0.696,1.437l2.911,27.338l59.513-82.195L509.83,595.956&#10;&#9;&#9;&#9;&#9;&#9;z M487.084,601.556l0.01-0.006C487.091,601.552,487.088,601.554,487.084,601.556z"/>
			</g>
			<g>
				<path style="fill:#FFC656;" d="M553.375,568.238c-0.274,0.252-0.504,0.581-0.649,1.016l-20.864,62.922&#10;&#9;&#9;&#9;&#9;&#9;c-5.527-14.94-11.055-29.881-16.582-44.821c-0.131-0.575-0.449-1.097-0.884-1.465l-7-40.512&#10;&#9;&#9;&#9;&#9;&#9;c-0.013-0.077-0.041-0.141-0.06-0.213c6.686-20.933,22.728-67.467,22.728-67.467s11.977-64.908,21.791-96.185&#10;&#9;&#9;&#9;&#9;&#9;c0.033-0.104,15.054-11.408,21.302-16.62C566.563,432.674,559.969,500.456,553.375,568.238z"/>
				<path style="fill:#FFC656;" d="M512.316,588.391l-0.089-0.278l-0.749-0.632l-7.163-41.452l-0.247-0.953l0.261-0.818&#10;&#9;&#9;&#9;&#9;&#9;c6.39-20.007,21.493-63.885,22.677-67.321c0.782-4.205,12.368-66.139,21.837-96.315c0.298-0.95,0.298-0.95,4.492-4.159&#10;&#9;&#9;&#9;&#9;&#9;c4.699-3.594,13.446-10.284,17.771-13.892l5.923-4.941L556.4,569.671l-0.723,0.664l-23.652,71.331L512.316,588.391z&#10;&#9;&#9;&#9;&#9;&#9; M569.307,371.951c-4.199,3.296-8.998,6.966-12.075,9.32c-1.026,0.784-2.014,1.541-2.64,2.023&#10;&#9;&#9;&#9;&#9;&#9;c-9.597,31.078-21.309,94.302-21.427,94.943l-0.114,0.432c-0.158,0.46-15.734,45.659-22.47,66.663l6.773,39.2&#10;&#9;&#9;&#9;&#9;&#9;c0.432,0.579,0.755,1.239,0.945,1.939l13.399,36.217l18.029-54.373c0.149-0.449,0.349-0.867,0.597-1.252L569.307,371.951z&#10;&#9;&#9;&#9;&#9;&#9; M504.351,546.149l-0.005-0.016C504.348,546.138,504.35,546.143,504.351,546.149z M504.291,545.895l-0.003-0.019&#10;&#9;&#9;&#9;&#9;&#9;C504.289,545.882,504.29,545.889,504.291,545.895z"/>
			</g>
		</g>
	</g>
</g>
<g>
	
		<image style="overflow:visible;" width="1422" height="2310" transform="matrix(0.24 0 0 0.24 785.28 -19.52)" xlink:href="480505C60381DEAF.png">
	</image>
	<g>
		<g>
			<g>
				<path style="fill:#F5F0A1;" d="M975.229,315.101c-0.512,0.147-0.995,0.462-1.375,0.99&#10;&#9;&#9;&#9;&#9;&#9;c-9.016,12.529-18.032,25.058-27.049,37.587c3.099-14.843,6.198-29.686,9.297-44.53c0.195-0.933-0.099-1.701-0.617-2.246&#10;&#9;&#9;&#9;&#9;&#9;c-4.982-9.953-9.963-19.907-14.945-29.86c13.893-12.277,27.786-24.555,41.679-36.832&#10;&#9;&#9;&#9;&#9;&#9;C979.888,265.174,977.558,290.138,975.229,315.101z"/>
				<path style="fill:#F5F0A1;" d="M952.953,308.812l-16.315-32.526l49.456-43.704l-7.929,84.953l-1.853,0.532l-35.627,49.507&#10;&#9;&#9;&#9;&#9;&#9;L952.953,308.812z M978.342,247.839l-33.902,29.959l13.692,27.355c1.019,1.303,1.402,2.964,1.053,4.637l-6.261,29.991&#10;&#9;&#9;&#9;&#9;&#9;l18.373-25.53c0.279-0.388,0.596-0.734,0.945-1.035L978.342,247.839z"/>
			</g>
			<g>
				<path style="fill:#BD4700;" d="M980.004,317.515c2.338-25.056,4.677-50.113,7.015-75.169&#10;&#9;&#9;&#9;&#9;&#9;c12.579,13.679,25.159,27.358,37.738,41.038l-27.276,60.97c-5.583-8.683-11.167-17.365-16.75-26.048&#10;&#9;&#9;&#9;&#9;&#9;c-0.21-0.327-0.465-0.557-0.736-0.74C979.996,317.547,980.002,317.533,980.004,317.515z"/>
				<path style="fill:#BD4700;" d="M978.155,320.124l-1.502-1.015l7.888-84.112l43.938,47.78l-30.5,68.175L978.155,320.124z&#10;&#9;&#9;&#9;&#9;&#9; M989.497,249.693l-6.229,66.74c0.038,0.055,0.076,0.111,0.112,0.167l13.602,21.152l24.053-53.765L989.497,249.693z&#10;&#9;&#9;&#9;&#9;&#9; M978.23,320.175c0.001,0,0.001,0.001,0.002,0.001l1.761-2.611L978.23,320.175z"/>
			</g>
			<g>
				<path style="fill:#FF9012;" d="M940.819,357.926c-5.76-14.562-11.521-29.124-17.281-43.686&#10;&#9;&#9;&#9;&#9;&#9;c4.331-11.352,8.662-22.705,12.993-34.057c4.827,9.643,9.653,19.286,14.479,28.929&#10;&#9;&#9;&#9;&#9;&#9;C947.613,325.383,944.216,341.655,940.819,357.926z"/>
				<path style="fill:#FF9012;" d="M920.158,314.261l15.982-41.894l18.177,36.315l-12.562,60.174L920.158,314.261z M936.92,287.999&#10;&#9;&#9;&#9;&#9;&#9;l-10.003,26.221l12.966,32.777l7.819-37.455L936.92,287.999z"/>
			</g>
			<g>
				<path style="fill:#BD4700;" d="M943.367,435.493c-35.877-57.013-70.755-108.025-106.632-165.038&#10;&#9;&#9;&#9;&#9;&#9;c16.709-8.578,33.417-17.156,50.126-25.734c15.271,10.536,30.541,21.071,45.812,31.607l-14.313,37.518&#10;&#9;&#9;&#9;&#9;&#9;c-0.417,1.093,13.949,36.083,20.597,52.888C940.76,391.654,941.563,410.574,943.367,435.493z"/>
				<path style="fill:#BD4700;" d="M940.701,437.171c-17.924-28.483-35.902-55.931-53.288-82.475&#10;&#9;&#9;&#9;&#9;&#9;c-17.399-26.564-56.956-84.918-56.956-84.918l56.642-28.719l49.399,34.082l-14.87,38.978&#10;&#9;&#9;&#9;&#9;&#9;c1.231,4.051,8.484,22.096,13.865,35.482c2.391,5.948,4.656,11.583,6.394,15.976l0.178,0.449l0.035,0.482&#10;&#9;&#9;&#9;&#9;&#9;c0.903,12.48,1.566,23.634,2.208,34.42c0.64,10.766,1.302,21.898,2.202,34.338l0.911,12.581L940.701,437.171z M929.647,351.95&#10;&#9;&#9;&#9;&#9;&#9;c-14.979-37.265-14.894-37.488-14.23-39.226l13.432-35.208l-42.225-29.132l-45.389,23.302&#10;&#9;&#9;&#9;&#9;&#9;c17.314,27.442,34.657,53.92,51.449,79.557c15.249,23.281,30.953,47.258,46.687,72.033c-0.501-7.664-0.932-14.898-1.353-21.975&#10;&#9;&#9;&#9;&#9;&#9;c-0.632-10.627-1.285-21.612-2.167-33.857C934.14,363.128,931.952,357.685,929.647,351.95z"/>
			</g>
			<g>
				<path style="fill:#FF5000;" d="M886.439,239.325l-49.763,25.548c20.428-25.7,40.856-51.4,61.284-77.101&#10;&#9;&#9;&#9;&#9;&#9;c2.763,8.78,5.526,17.56,8.289,26.339l-19.139,24.977C886.89,239.135,886.667,239.208,886.439,239.325z"/>
				<path style="fill:#FF5000;" d="M899.185,181.168l10.561,33.559l-20.134,26.276l-0.726,0.909l-1.065,0.244l-57.364,27.621&#10;&#9;&#9;&#9;&#9;&#9;L899.185,181.168z M902.753,213.495l-6.018-19.12L848.229,255.4l36.772-18.878c0.057-0.029,0.114-0.058,0.171-0.084&#10;&#9;&#9;&#9;&#9;&#9;L902.753,213.495z"/>
			</g>
			<g>
				<path style="fill:#C2531A;" d="M938.238,50.004c-13.089,43.228-26.177,86.456-39.266,129.684&#10;&#9;&#9;&#9;&#9;&#9;c-0.561-0.001-43.795,53.925-64.555,80.043c0.99-12.413,2.883-38.32,2.631-38.694&#10;&#9;&#9;&#9;&#9;&#9;C872.121,164.832,905.848,107.795,938.238,50.004z"/>
				<path style="fill:#C2531A;" d="M831.277,259.481c1.014-12.713,2.018-38.379,2.018-38.379l1.081-1.731&#10;&#9;&#9;&#9;&#9;&#9;c34.713-55.629,68.733-113.131,101.114-170.906l14.149-25.245l-48.331,159.624l-0.965-0.002&#10;&#9;&#9;&#9;&#9;&#9;c-5.926,6.91-41.671,51.437-63.46,78.851l-6.427,8.086L831.277,259.481z M926.966,76.361&#10;&#9;&#9;&#9;&#9;&#9;c-28.023,49.22-57.134,98.065-86.759,145.563c-0.016,2.016-0.29,5.919-0.867,14.165c-0.317,4.531-0.667,9.31-0.993,13.646&#10;&#9;&#9;&#9;&#9;&#9;c10.396-13.042,23.067-28.869,33.468-41.796c7.281-9.05,13.106-16.253,17.312-21.41c3.747-4.593,5.771-7.075,7.03-8.417&#10;&#9;&#9;&#9;&#9;&#9;L926.966,76.361z"/>
			</g>
			<g>
				<path style="fill:#FF6B00;" d="M982.209,233.597c-0.078,0.056-30.109,26.57-45.047,39.77&#10;&#9;&#9;&#9;&#9;&#9;c-15.278-10.541-30.557-21.082-45.836-31.623l19.963-26.053c0.8-1.045-5.943-21.098-8.83-30.269&#10;&#9;&#9;&#9;&#9;&#9;c15.632-51.629,31.264-103.258,46.897-154.887C949.357,30.534,982.87,232.879,982.209,233.597z"/>
				<path style="fill:#FF6B00;" d="M886.812,242.456l21.292-27.788c-0.671-3.502-4.453-15.238-6.562-21.782&#10;&#9;&#9;&#9;&#9;&#9;c-0.789-2.446-1.514-4.697-2.087-6.519l-0.292-0.928l51.094-168.749l2.207,13.329c0.084,0.506,8.474,51.168,16.675,101.268&#10;&#9;&#9;&#9;&#9;&#9;c4.817,29.427,8.627,52.904,11.326,69.781c1.603,10.026,2.826,17.806,3.636,23.123c1.568,10.297,1.568,10.297,0.426,11.539&#10;&#9;&#9;&#9;&#9;&#9;l-0.218,0.237l-0.142,0.102c-1.936,1.697-30.785,27.168-44.919,39.659l-1.847,1.632L886.812,242.456z M948.456,44.382&#10;&#9;&#9;&#9;&#9;&#9;l-42.698,141.02c0.516,1.625,1.127,3.521,1.781,5.552c7.897,24.504,7.614,24.874,6.251,26.653l-17.95,23.424l41.082,28.344&#10;&#9;&#9;&#9;&#9;&#9;c7.469-6.6,35.322-31.208,42.002-37.075C977.066,218.089,958.162,103.098,948.456,44.382z"/>
			</g>
			<g>
				<path style="fill:#FFCB8B;" d="M1075.586,219.349c-8.624,8.142-17.249,16.285-25.873,24.427&#10;&#9;&#9;&#9;&#9;&#9;c-0.809,0.295-15.135,23.858-21.94,34.872c-12.596-13.583-25.192-27.165-37.789-40.747&#10;&#9;&#9;&#9;&#9;&#9;c0.543-0.55-22.839-133.353-34.607-198.889C991.519,101.636,1031.676,161.895,1075.586,219.349z"/>
				<path style="fill:#FFCB8B;" d="M985.14,237.825l1.191-1.205c-2.055-14.371-22.186-128.98-34.397-196.989l-3.542-19.727&#10;&#9;&#9;&#9;&#9;&#9;l10.018,17.359c35.972,62.331,76.332,122.878,119.957,179.961l1.915,2.506l-28.166,26.592l-0.027,0.025&#10;&#9;&#9;&#9;&#9;&#9;c-1.676,2.156-10.994,17.32-16.608,26.456c-1.761,2.866-3.391,5.518-4.73,7.685l-2.417,3.912L985.14,237.825z M1047.31,241.231&#10;&#9;&#9;&#9;&#9;&#9;l23.582-22.264c-39.107-51.373-75.58-105.517-108.604-161.211c5.765,32.3,12.763,71.898,18.457,104.469&#10;&#9;&#9;&#9;&#9;&#9;c3.906,22.339,6.989,40.17,9.166,53c1.188,6.998,2.089,12.418,2.681,16.109c0.366,2.284,0.623,3.889,0.763,5.057l33.853,36.503&#10;&#9;&#9;&#9;&#9;&#9;c0.732-1.19,1.506-2.45,2.308-3.755c13.037-21.217,16.272-26.383,17.796-27.904L1047.31,241.231z"/>
			</g>
			<g>
				<path style="fill:#F5F0A1;" d="M1064.457,278.064c-3.71-10.347-7.419-20.694-11.129-31.04l22.736-21.285&#10;&#9;&#9;&#9;&#9;&#9;C1072.195,243.18,1068.326,260.622,1064.457,278.064z"/>
				<path style="fill:#F5F0A1;" d="M1049.665,246.138l31.68-29.658l-16.173,72.91L1049.665,246.138z M1056.992,247.909l6.751,18.83&#10;&#9;&#9;&#9;&#9;&#9;l7.041-31.742L1056.992,247.909z"/>
			</g>
			<g>
				<path style="fill:#E75300;" d="M989.846,390.042c3.22-12.784,9.69-38.374,9.703-38.39c0.642-0.466,30.543-68.02,30.543-68.02&#10;&#9;&#9;&#9;&#9;&#9;c0.017-0.039,0.023-0.077,0.039-0.115c6.558-10.515,13.116-21.03,19.674-31.544c4.252,11.86,8.504,23.719,12.756,35.579&#10;&#9;&#9;&#9;&#9;&#9;C1038.322,321.715,1014.084,355.879,989.846,390.042z"/>
				<path style="fill:#E75300;" d="M986.791,389.273c9.101-36.136,9.778-38.822,10.239-39.509c-0.076,0.103-0.121,0.178-0.138,0.208&#10;&#9;&#9;&#9;&#9;&#9;c1.316-2.328,18.78-41.548,30.247-67.452l23.435-37.734l15.505,43.248l-83.396,117.548L986.791,389.273z M1049.035,259.159&#10;&#9;&#9;&#9;&#9;&#9;l-16.071,25.768c-22.213,50.185-28.333,63.667-30.377,67.548l0.003,0.001c-0.12,0.452-2.801,11.048-5.571,22.013l62.022-87.42&#10;&#9;&#9;&#9;&#9;&#9;L1049.035,259.159z M1033.125,284.49c0.004-0.015,0.009-0.03,0.013-0.044L1033.125,284.49z M1027.087,282.695l0.011-0.038&#10;&#9;&#9;&#9;&#9;&#9;C1027.094,282.67,1027.09,282.683,1027.087,282.695z"/>
			</g>
			<g>
				<path style="fill:#FF6B00;" d="M981.851,401.31c-10.706,15.09-21.411,30.18-32.117,45.269&#10;&#9;&#9;&#9;&#9;&#9;c-1.909-26.375-3.817-52.751-5.726-79.126c0.107-0.278,0.156-0.587,0.115-0.93c0.076-0.366,0.153-0.732,0.229-1.098&#10;&#9;&#9;&#9;&#9;&#9;c0.183-0.147,0.359-0.315,0.513-0.529c10.542-14.649,21.084-29.298,31.625-43.946c6.132,9.535,12.264,19.071,18.396,28.607&#10;&#9;&#9;&#9;&#9;&#9;C990.541,366.808,986.196,384.059,981.851,401.31z"/>
				<path style="fill:#FF6B00;" d="M940.815,366.977l0.145-0.374l-0.026-0.22l0.582-2.718l0.844-0.68l34.277-47.631l21.637,33.647&#10;&#9;&#9;&#9;&#9;&#9;l-13.512,53.651l-37.536,52.907L940.815,366.977z M991.498,350.111l-15.154-23.565l-28.922,40.19&#10;&#9;&#9;&#9;&#9;&#9;c-0.044,0.062-0.09,0.122-0.137,0.182c-0.008,0.284-0.041,0.566-0.097,0.844l5.054,69.839l26.698-37.632L991.498,350.111z"/>
			</g>
			<g>
				<path style="fill:#FF5000;" d="M974.18,420.733c-6.93,16.243-13.86,32.485-20.789,48.727c-0.784-4.954-1.568-9.909-2.353-14.863&#10;&#9;&#9;&#9;&#9;&#9;C951.369,454.115,966.575,431.452,974.18,420.733z"/>
				<path style="fill:#FF5000;" d="M947.733,453.851l1.328-1.957c13.036-19.365,19.458-28.625,22.549-32.983l16.988-23.947&#10;&#9;&#9;&#9;&#9;&#9;l-36.607,85.804L947.733,453.851z M954.343,455.33l0.447,2.823l4.049-9.49C957.436,450.739,955.939,452.958,954.343,455.33z"/>
			</g>
			<g>
				<path style="fill:#974608;" d="M867.649,326.905c24.771,39.181,56.291,87.102,76.676,119.495c0.1,0.221,1.223,6.421,1.373,6.593&#10;&#9;&#9;&#9;&#9;&#9;c0.025,0.04,0.051,0.08,0.076,0.12c0.002,0.012,1.44,6.307,3.127,12.874C920.792,421.779,893.03,372.728,867.649,326.905z"/>
				<path style="fill:#974608;" d="M946.242,467.678c-28.872-45.409-91.761-154.526-115.786-197.9l39.855,55.444&#10;&#9;&#9;&#9;&#9;&#9;c12.382,19.585,26.413,41.296,39.982,62.292c13.627,21.086,26.499,41.003,36.698,57.209l0.203,0.377&#10;&#9;&#9;&#9;&#9;&#9;c0.194,0.428,0.214,0.531,0.728,3.174c0.204,1.052,0.525,2.705,0.688,3.436l0.179,0.288l0.081,0.525&#10;&#9;&#9;&#9;&#9;&#9;c0.185,0.806,1.535,6.66,3.082,12.681l0.04,15.563L946.242,467.678z M933.667,435.47c2.601,4.284,5.214,8.55,7.832,12.782&#10;&#9;&#9;&#9;&#9;&#9;c-0.047-0.24-0.089-0.452-0.125-0.625C938.947,443.771,936.37,439.708,933.667,435.47z"/>
			</g>
		</g>
	</g>
</g>
<g transform="matrix(1, 0, 0, 1, 27.8911575595709, -8.367347267871281)">
	
		<image style="overflow:visible;" width="883" height="1768" transform="matrix(0.24 0 0 0.24 -17.52 341.2)" xlink:href="480505C60381DEA0.png">
	</image>
	<g>
		<g>
			<g>
				<path style="fill:#622066;" d="M86.462,397.717c-11.945,40.353-23.891,80.706-35.836,121.059&#10;&#9;&#9;&#9;&#9;&#9;c-6.277-10.249-12.555-20.497-18.832-30.746L86.462,397.717z"/>
				<path style="fill:#622066;" d="M27.487,488.044l68.057-110.624L51.145,528.726L27.487,488.044z M36.102,488.016l13.412,21.896&#10;&#9;&#9;&#9;&#9;&#9;l25.519-86.211L36.102,488.016z"/>
			</g>
			<g>
				<path style="fill:#B34FC5;" d="M82.942,667.622c-11.662-8.809-23.323-17.619-34.985-26.428&#10;&#9;&#9;&#9;&#9;&#9;c2.008-36.495,4.016-72.991,6.023-109.486c11.488,9.276,22.976,18.552,34.464,27.828&#10;&#9;&#9;&#9;&#9;&#9;C86.61,595.565,84.776,631.593,82.942,667.622z"/>
				<path style="fill:#B34FC5;" d="M44.294,643.26l6.548-119.025l41.252,33.309l-5.973,117.314L44.294,643.26z M57.119,539.179&#10;&#9;&#9;&#9;&#9;&#9;l-5.499,99.95l28.142,21.258l5.033-98.859L57.119,539.179z"/>
			</g>
			<g>
				<path style="fill:#D8C2D7;" d="M59.568,528.381c16.726-4.632,40.033-10.737,51.853-14.412&#10;&#9;&#9;&#9;&#9;&#9;c-6.67,13.374-13.34,26.749-20.01,40.123C80.796,545.522,70.182,536.952,59.568,528.381z"/>
				<path style="fill:#D8C2D7;" d="M51.194,526.557l7.535-2.086c5.231-1.449,11.105-3.041,17.071-4.658&#10;&#9;&#9;&#9;&#9;&#9;c13.085-3.547,26.615-7.216,34.686-9.726l8.217-2.552l-26.144,52.421L51.194,526.557z M77.444,527.642&#10;&#9;&#9;&#9;&#9;&#9;c-3.217,0.873-6.407,1.738-9.485,2.577l22.305,18.009l13.945-27.961C96.491,522.479,86.852,525.091,77.444,527.642z"/>
			</g>
			<g>
				<path style="fill:#B34FC5;" d="M112.734,506.309c-19.138,5.55-38.276,11.101-57.414,16.651&#10;&#9;&#9;&#9;&#9;&#9;c12.496-42.212,24.991-84.424,37.487-126.637C99.449,432.985,106.092,469.647,112.734,506.309z"/>
				<path style="fill:#B34FC5;" d="M95.543,377.421l21.341,131.839l-66.998,19.431L95.543,377.421z M91.982,411.735L60.754,517.23&#10;&#9;&#9;&#9;&#9;&#9;l47.829-13.871L91.982,411.735z"/>
			</g>
			<g>
				<path style="fill:#D8C2D7;" d="M142.989,465.784c-8.45,11.971-16.9,23.941-25.35,35.912&#10;&#9;&#9;&#9;&#9;&#9;c-6.932-38.261-13.864-76.521-20.795-114.782C112.226,413.204,127.608,439.494,142.989,465.784z"/>
				<path style="fill:#D8C2D7;" d="M95.543,377.421l51.83,88.586l-31.685,44.887L95.543,377.421z M103.991,406.4L119.59,492.5&#10;&#9;&#9;&#9;&#9;&#9;l19.016-26.939L103.991,406.4z"/>
			</g>
			<g>
				<path style="fill:#BD83C9;" d="M139.616,638.439c-17.785,7.403-34.822,16.757-50.981,27.965&#10;&#9;&#9;&#9;&#9;&#9;c1.777-34.917,3.555-69.833,5.332-104.75c0.158-0.187,0.307-0.4,0.438-0.662c8.229-16.499,16.457-32.999,24.686-49.498&#10;&#9;&#9;&#9;&#9;&#9;c0.157-0.314,0.248-0.627,0.311-0.938c2.577-3.082,14.024-20.363,23.064-33.637&#10;&#9;&#9;&#9;&#9;&#9;C141.517,530.759,140.566,584.599,139.616,638.439z"/>
				<path style="fill:#BD83C9;" d="M90.431,561.422l0.09-1.49l0.848-1.014l24.59-49.306l0.209-1.031l0.667-0.798&#10;&#9;&#9;&#9;&#9;&#9;c1.689-2.02,8.204-11.681,14.506-21.025c2.792-4.138,5.662-8.394,8.324-12.303l7.708-8.449l1.72,170.767l-8.259,5.445&#10;&#9;&#9;&#9;&#9;&#9;c-17.477,7.275-34.419,16.568-50.354,27.621l-5.774,4.004L90.431,561.422z M138.71,489.07c-0.584,0.865-1.166,1.727-1.744,2.585&#10;&#9;&#9;&#9;&#9;&#9;c-6.419,9.517-12.034,17.844-14.425,20.957c-0.105,0.299-0.227,0.587-0.366,0.866l-24.686,49.497&#10;&#9;&#9;&#9;&#9;&#9;c-0.015,0.029-0.029,0.059-0.044,0.088l-4.888,96.007c13.928-9.167,28.545-17.036,43.566-23.453L138.71,489.07z"/>
			</g>
			<g>
				<path style="fill:#C05BEF;" d="M88.424,675.006c0.173-0.385,0.29-0.798,0.324-1.22c15.67-11.105,32.18-20.453,49.413-27.947&#10;&#9;&#9;&#9;&#9;&#9;c-13.504,19.147-27.008,38.294-40.513,57.441C94.573,693.856,91.498,684.431,88.424,675.006z"/>
				<path style="fill:#C05BEF;" d="M84.561,674.747l0.673-1.494l0.15-1.827l1.49-1.055c15.839-11.226,32.669-20.744,50.02-28.291&#10;&#9;&#9;&#9;&#9;&#9;l12.2-5.306L96.5,711.343L84.561,674.747z M92.489,675.89l6.306,19.327l28.022-39.733&#10;&#9;&#9;&#9;&#9;&#9;C115.008,661.381,103.511,668.213,92.489,675.89z"/>
			</g>
			<g>
				<path style="fill:#622066;" d="M40.591,662.23l4.546-15.494c12.427,9.387,24.854,18.775,37.281,28.162l9.123,27.966&#10;&#9;&#9;&#9;&#9;&#9;C74.558,689.319,57.574,675.774,40.591,662.23z"/>
				<path style="fill:#622066;" d="M36.395,663.801l6.845-23.33l42.099,31.8L96.5,711.343L36.395,663.801z M47.032,653.002&#10;&#9;&#9;&#9;&#9;&#9;l-2.245,7.656l39.48,31.487l-4.77-14.619L47.032,653.002z"/>
			</g>
			<g>
				<path style="fill:#873299;" d="M29.132,496.158c5.257,10.6,14.855,27.289,19.364,32.848c-1.98,35.989-3.96,71.978-5.94,107.967&#10;&#9;&#9;&#9;&#9;&#9;c0,0-2.655,7.41-3.523,10.368C35.732,596.947,32.432,546.552,29.132,496.158z"/>
				<path style="fill:#873299;" d="M27.487,488.044c0,0,19.316,32.936,23.614,38.234l1.025,1.263l-6.07,110.34l-0.219,0.61&#10;&#9;&#9;&#9;&#9;&#9;c-0.026,0.073-2.622,7.322-3.443,10.123l-5.998,15.187L27.487,488.044z M33.759,512.562L40.33,612.91l4.539-82.501&#10;&#9;&#9;&#9;&#9;&#9;C41.966,526.486,37.769,519.639,33.759,512.562z"/>
			</g>
		</g>
	</g>
</g>
<g>
	
		<image style="overflow:visible;" width="1333" height="1780" transform="matrix(0.24 0 0 0.24 554.64 -16.88)" xlink:href="480505C60381DEA1.png">
	</image>
	<g>
		<g>
			<g>
				<path style="fill:#8431A6;" d="M756.239,22.986c-39.828,27.15-79.655,54.3-119.483,81.45l4.718-78.624&#10;&#9;&#9;&#9;&#9;&#9;C679.729,24.87,717.984,23.928,756.239,22.986z"/>
				<path style="fill:#8431A6;" d="M638.172,22.392l129.841-3.197l-135.178,92.149L638.172,22.392z M644.775,29.231l-4.097,68.296&#10;&#9;&#9;&#9;&#9;&#9;l103.787-70.751L644.775,29.231z"/>
			</g>
			<g>
				<path style="fill:#B34FC5;" d="M798.934,159.231c-15.653,16.377-31.306,32.753-46.959,49.13&#10;&#9;&#9;&#9;&#9;&#9;c-0.005,0.005-0.007,0.01-0.012,0.015c-0.039,0.014-0.076,0.018-0.115,0.033c-25.886,10.412-51.771,20.824-77.657,31.237&#10;&#9;&#9;&#9;&#9;&#9;c-12.602-42.753-25.205-85.505-37.807-128.258c42.83-29.197,85.66-58.393,128.49-87.59c-0.001,0.223,0.017,0.455,0.081,0.706&#10;&#9;&#9;&#9;&#9;&#9;C776.281,69.413,787.607,114.322,798.934,159.231z"/>
				<path style="fill:#B34FC5;" d="M632.307,109.932l130.596-89.025l5.111-1.712L802.8,160.251l-48.127,50.351l-0.784,0.8&#10;&#9;&#9;&#9;&#9;&#9;l-0.741,0.267c-0.051,0.019-0.102,0.035-0.152,0.051l-81.073,32.61L632.307,109.932z M795.067,158.211L762.622,29.568&#10;&#9;&#9;&#9;&#9;&#9;l-122.161,83.275l35.997,122.118l73.512-29.569L795.067,158.211z"/>
			</g>
			<g>
				<path style="fill:#A35EB5;" d="M669.825,274.143c-12.443-4.464-24.886-8.928-37.33-13.392&#10;&#9;&#9;&#9;&#9;&#9;c3.752-1.123,31.411-11.401,37.85-14.217C670.172,255.737,669.999,264.94,669.825,274.143z"/>
				<path style="fill:#A35EB5;" d="M631.492,257.399c3.513-1.051,31.054-11.273,37.452-14.071l5.005-2.189l-0.716,37.946&#10;&#9;&#9;&#9;&#9;&#9;l-51.938-18.633L631.492,257.399z M666.747,251.786c-6.442,2.543-16.403,6.281-23.819,8.99l23.49,8.427L666.747,251.786z"/>
			</g>
			<g>
				<path style="fill:#D5BFCC;" d="M800.908,165.147c-0.534,21.261-1.067,42.523-1.601,63.784&#10;&#9;&#9;&#9;&#9;&#9;c-9.513,7.565-19.025,15.129-28.538,22.694c-4.57-13.534-9.14-27.068-13.709-40.602&#10;&#9;&#9;&#9;&#9;&#9;C771.675,195.731,786.292,180.439,800.908,165.147z"/>
				<path style="fill:#D5BFCC;" d="M753.065,210.136l51.569-53.952l1.386,70.035l-36.974,31.247L753.065,210.136z M797.182,174.111&#10;&#9;&#9;&#9;&#9;&#9;l-36.129,37.8l11.438,33.874l23.358-18.575L797.182,174.111z"/>
			</g>
			<g>
				<path style="fill:#D8C2D7;" d="M825.036,112.515c-7.264,13.714-14.529,27.427-21.793,41.141&#10;&#9;&#9;&#9;&#9;&#9;c-9.996-39.633-19.991-79.266-29.987-118.899C790.515,60.676,807.775,86.595,825.036,112.515z"/>
				<path style="fill:#D8C2D7;" d="M768.013,19.195l61.091,93.116l-27.03,51.026L768.013,19.195z M781.628,53.645l22.782,90.329&#10;&#9;&#9;&#9;&#9;&#9;l16.556-31.255L781.628,53.645z"/>
			</g>
			<g>
				<path style="fill:#BB80D1;" d="M805.246,213.331c0.453-18.062,0.907-36.124,1.36-54.186c0.285-0.357,0.464-0.74,0.559-1.13&#10;&#9;&#9;&#9;&#9;&#9;c5.737-10.83,11.473-21.659,17.21-32.489C817.999,154.795,811.623,184.063,805.246,213.331z"/>
				<path style="fill:#BB80D1;" d="M803.137,157.881l0.66-0.826l0.071-0.292l25.236-44.452l-23.098,115.005l-4.259-14.073&#10;&#9;&#9;&#9;&#9;&#9;L803.137,157.881z M810.422,159.343c-0.094,0.284-0.208,0.56-0.341,0.827l-0.412,16.414l5.855-26.873L810.422,159.343z"/>
			</g>
			<g>
				<path style="fill:#BB80D1;" d="M785.239,305.163c-4.39-15.674-8.779-31.348-13.169-47.023c0.268-0.267,0.424-0.564,0.523-0.868&#10;&#9;&#9;&#9;&#9;&#9;c9.305-7.4,18.611-14.799,27.916-22.199C795.419,258.436,790.329,281.799,785.239,305.163z"/>
				<path style="fill:#BB80D1;" d="M768.147,257.107l1.213-1.207l0.232-0.714l36.428-28.968l-20.357,93.438L768.147,257.107z&#10;&#9;&#9;&#9;&#9;&#9; M775.963,259.063l8.851,31.606l10.184-46.743L775.963,259.063z"/>
			</g>
			<g>
				<path style="fill:#8431A6;" d="M679.943,351.293c5.996-15.279,11.993-30.558,17.989-45.838c0.017-0.01,0.034-0.015,0.051-0.026&#10;&#9;&#9;&#9;&#9;&#9;c23.078-14.706,46.157-29.411,69.235-44.117c5.066,18.09,10.133,36.181,15.199,54.272L679.943,351.293z"/>
				<path style="fill:#8431A6;" d="M695.118,303.043l74.197-47.217l16.348,63.831L675.79,356.252L695.118,303.043z M765.12,266.799&#10;&#9;&#9;&#9;&#9;&#9;l-64.35,41.004l-14.787,37.678l92.176-32.121L765.12,266.799z"/>
			</g>
			<g>
				<path style="fill:#BD83CA;" d="M694.399,300.708c-6.357-8.118-12.714-16.235-19.071-24.352&#10;&#9;&#9;&#9;&#9;&#9;c0.198-10.475,0.395-20.95,0.593-31.424c25.461-10.241,50.921-20.482,76.381-30.724c4.412,13.067,8.824,26.133,13.236,39.199&#10;&#9;&#9;&#9;&#9;&#9;c-0.201,0.457-0.251,1.013-0.069,1.662l0.194,0.692c-23.316,14.857-46.632,29.714-69.948,44.571&#10;&#9;&#9;&#9;&#9;&#9;C695.255,300.344,694.801,300.466,694.399,300.708z"/>
				<path style="fill:#BD83CA;" d="M671.806,277.533l0.66-34.984l81.967-32.971l14.856,43.998l-0.37,0.837l0.813,2.904&#10;&#9;&#9;&#9;&#9;&#9;l-72.959,46.49l-0.769,0.019l-2.453,1.476L671.806,277.533z M761.9,253.574l-11.729-34.737l-70.795,28.477l-0.525,27.864&#10;&#9;&#9;&#9;&#9;&#9;l16.588,21.181l66.424-42.325C761.869,253.879,761.882,253.726,761.9,253.574z"/>
			</g>
			<g>
				<path style="fill:#622066;" d="M610.938,267.206c4.197-1.257,8.394-2.513,12.59-3.769c15.922,5.712,31.844,11.424,47.767,17.136&#10;&#9;&#9;&#9;&#9;&#9;c0.12,0.043,0.233,0.06,0.349,0.087c6.673,8.521,13.346,17.042,20.02,25.564c-5.629,14.343-11.257,28.685-16.886,43.028&#10;&#9;&#9;&#9;&#9;&#9;C653.498,321.903,632.218,294.554,610.938,267.206z"/>
				<path style="fill:#622066;" d="M605.036,265.319l18.591-5.566l48.715,17.476l1.301,0.307l22.009,28.103l-19.863,50.612&#10;&#9;&#9;&#9;&#9;&#9;L605.036,265.319z M669.552,283.665l-46.122-16.547l-6.59,1.973l56.925,73.16l13.91-35.445L669.552,283.665z"/>
			</g>
			<g>
				<path style="fill:#873299;" d="M603.246,77.202c9.001,10.955,18.001,21.911,27.002,32.866c0.006,0.023,0.004,0.042,0.011,0.066&#10;&#9;&#9;&#9;&#9;&#9;l38.61,130.984c-7.213,3.154-14.425,6.308-21.638,9.463c-7.917,2.37-15.833,4.74-23.75,7.11&#10;&#9;&#9;&#9;&#9;&#9;c-0.551-0.009-1.042,0.153-1.451,0.435c-5.321,1.593-10.642,3.186-15.963,4.779c-0.283,0.037-0.557,0.123-0.819,0.245&#10;&#9;&#9;&#9;&#9;&#9;c-0.001,0-0.002,0.001-0.004,0.001C604.578,201.168,603.912,139.185,603.246,77.202z"/>
				<path style="fill:#873299;" d="M599.837,69.813l33.586,38.606l39.676,134.668l-24.465,10.699l-24.668,7.412l-0.223-0.004&#10;&#9;&#9;&#9;&#9;&#9;l-0.182,0.125l-18.525,3.999L599.837,69.813z M622.888,254.215l23.136-6.927l18.616-8.141l-37.561-127.422l-20.227-24.62&#10;&#9;&#9;&#9;&#9;&#9;l1.842,171.359l11.92-3.568C621.319,254.518,622.089,254.287,622.888,254.215z"/>
			</g>
			<g>
				<path style="fill:#A35EB5;" d="M604.294,69.725c10.492-13.858,20.983-27.715,31.475-41.573&#10;&#9;&#9;&#9;&#9;&#9;c-1.489,24.815-2.978,49.631-4.467,74.446L604.294,69.725z"/>
				<path style="fill:#A35EB5;" d="M599.837,69.813l38.335-47.421l-5.337,88.952L599.837,69.813z M608.751,69.637l19.591,23.846&#10;&#9;&#9;&#9;&#9;&#9;l3.24-54.004L608.751,69.637z"/>
			</g>
			<path d="M 754.4329833984375 209.5780029296875 L 632.8350219726562 111.34400177001953 L 673.0989990234375 243.08799743652344 Z" style="fill:#A35EB5;"/>
		</g>
	</g>
</g>
<g>
	
		<image style="overflow:visible;" width="1383" height="1518" transform="matrix(0.24 0 0 0.24 280.56 -24.32)" xlink:href="480505C60381DEA6.png">
	</image>
	<g>
		<g>
			<g>
				<path style="fill:#F2EC72;" d="M556.009,131.416L474.901,17.264L452.358,58.21l0.217,0.589&#10;&#9;&#9;&#9;&#9;&#9;c0.093,3.882-1.217,47.358-2.07,71.571l-0.039,1.123l0.938,0.618c0.099,0.065,0.2,0.128,0.296,0.218l76.786,71.347&#10;&#9;&#9;&#9;&#9;&#9;L556.009,131.416z"/>
				<path style="fill:#F2EC72;" d="M475.116,21.02c26.214,36.895,52.429,73.789,78.643,110.683&#10;&#9;&#9;&#9;&#9;&#9;c-8.696,22.829-17.391,45.657-26.087,68.486c-24.87-23.108-49.741-46.217-74.611-69.326c-0.182-0.17-0.37-0.3-0.557-0.423&#10;&#9;&#9;&#9;&#9;&#9;c0.807-22.929,2.288-71.404,2.046-72.065C461.405,45.924,468.261,33.472,475.116,21.02 M474.686,13.508l-3.074,5.583&#10;&#9;&#9;&#9;&#9;&#9;l-8.306,15.088l-12.26,22.269l-0.879,1.596l0.412,1.122c0.03,5.439-1.248,47.723-2.072,71.135l-0.079,2.246l1.877,1.236&#10;&#9;&#9;&#9;&#9;&#9;c0.024,0.016,0.049,0.031,0.073,0.048l26.684,24.794l47.889,44.496l4.348,4.04l2.113-5.547l14.375-37.738l11.712-30.748&#10;&#9;&#9;&#9;&#9;&#9;l0.761-1.998l-1.238-1.743l-33.575-47.253l-47.292-70.389L474.686,13.508z"/>
			</g>
			<g>
				<path style="fill:#E2E000;" d="M446.957,132.061v-1.022l-0.005-0.053c0.415-11.841,0.802-28.577,1.026-40.328&#10;&#9;&#9;&#9;&#9;&#9;c0.133-6.941,0.225-12.903,0.266-17.241c0.082-8.504,0.082-8.504-1.348-9.041l-1.226-0.46l-0.912,0.939&#10;&#9;&#9;&#9;&#9;&#9;c-17.444,17.954-53.854,56.085-54.22,56.469l-0.451,0.472l-0.085,0.647c-1.328,10.078-2.655,20.405-3.982,30.732&#10;&#9;&#9;&#9;&#9;&#9;c-1.328,10.33-2.656,20.659-3.983,30.739l-0.69,5.238L446.957,132.061z"/>
				<path style="fill:#E2E000;" d="M446.194,66.248c0.33,0.124-0.488,43.273-1.245,64.78c-0.001,0.043,0.008,0.08,0.008,0.122&#10;&#9;&#9;&#9;&#9;&#9;c-20.312,17.675-40.625,35.35-60.937,53.025c2.655-20.157,5.31-41.314,7.966-61.471&#10;&#9;&#9;&#9;&#9;&#9;C391.985,122.704,428.553,84.404,446.194,66.248 M443.325,63.461c-17.451,17.961-53.867,56.098-54.233,56.481l-0.902,0.945&#10;&#9;&#9;&#9;&#9;&#9;l-0.171,1.295c-1.328,10.084-2.678,20.587-3.984,30.745c-1.305,10.154-2.655,20.653-3.982,30.726l-1.38,10.476l7.971-6.936&#10;&#9;&#9;&#9;&#9;&#9;l31.394-27.318l29.543-25.707l1.361-1.185l0.013-1.804c0-0.068-0.001-0.135-0.003-0.201c0.414-11.826,0.801-28.539,1.025-40.281&#10;&#9;&#9;&#9;&#9;&#9;c0.133-6.947,0.225-12.916,0.266-17.26c0.022-2.276,0.029-4.051,0.021-5.276c-0.014-2.292,1.034-8.772,0.736-11.73&#10;&#9;&#9;&#9;&#9;&#9;L443.325,63.461z"/>
			</g>
			<g>
				<path d="M 565.1840209960938 177.61599731445312 L 558.2379760742188 135.61599731445312 L 533.656982421875 200.1490020751953 Z" style="fill:#E2E71F;"/>
				<path style="fill:#E2E71F;" d="M557.473,143.244c1.845,11.156,3.69,22.313,5.535,33.469&#10;&#9;&#9;&#9;&#9;&#9;c-8.374,5.985-16.748,11.971-25.123,17.956C544.414,177.528,550.943,160.386,557.473,143.244 M558.259,131.129l-4.524,10.691&#10;&#9;&#9;&#9;&#9;&#9;l-19.588,51.425l-4.717,12.383l10.781-7.705l8.296-5.93l16.826-12.026l2.027-1.449l-0.406-2.458l-2.767-16.734l-2.767-16.734&#10;&#9;&#9;&#9;&#9;&#9;L558.259,131.129z"/>
			</g>
			<g>
				<path style="fill:#ADA400;" d="M416.891,279.215l0.526-0.589c0.136-0.152,0.257-0.259,0.392-0.349l108.335-71.897&#10;&#9;&#9;&#9;&#9;&#9;l-76.983-71.531l-68.449,59.562l-0.074,0.797c-0.008,0.081-0.011,0.16-0.012,0.238l-12.448,88.126L416.891,279.215z"/>
				<path style="fill:#ADA400;" d="M449.116,137.538c24.602,22.86,49.205,45.719,73.807,68.579&#10;&#9;&#9;&#9;&#9;&#9;c-35.407,23.498-70.814,46.996-106.221,70.494c-0.312,0.207-0.56,0.44-0.777,0.682c-15.138,1.354-30.277,2.708-45.416,4.062&#10;&#9;&#9;&#9;&#9;&#9;c4.036-28.572,8.072-57.143,12.108-85.715c0.012-0.087,0.003-0.163,0.01-0.247C404.79,176.108,426.953,156.823,449.116,137.538&#10;&#9;&#9;&#9;&#9;&#9; M449.204,132.159l-2.713,2.361l-66.488,57.855l-1.223,1.064l-0.137,1.615c-0.006,0.077-0.011,0.152-0.014,0.227l-5.446,38.552&#10;&#9;&#9;&#9;&#9;&#9;l-6.634,46.963l-0.705,4.993l5.022-0.449l40.821-3.651l4.595-0.411l1.571-0.141l1.052-1.175&#10;&#9;&#9;&#9;&#9;&#9;c0.009-0.011,0.019-0.021,0.016-0.021c-0.001,0-0.003,0.001-0.007,0.003l53.11-35.247l53.11-35.247l4.23-2.807l-3.719-3.456&#10;&#9;&#9;&#9;&#9;&#9;l-73.807-68.579L449.204,132.159L449.204,132.159z"/>
			</g>
			<g>
				<path style="fill:#A29200;" d="M328.519,171.323l1.98,82.259c0.006,0.139-0.01,0.264-0.025,0.386l-0.152,1.172l31.258,22.904&#10;&#9;&#9;&#9;&#9;&#9;L328.519,171.323z"/>
				<path style="fill:#A29200;" d="M329.583,185.609c9.397,29.055,18.793,58.11,28.19,87.166&#10;&#9;&#9;&#9;&#9;&#9;c-8.439-6.183-16.878-12.367-25.317-18.55c0.03-0.234,0.052-0.473,0.041-0.729L329.583,185.609 M325.587,185.781l2.913,67.849&#10;&#9;&#9;&#9;&#9;&#9;c-0.002,0.029-0.007,0.058-0.01,0.086l-0.3,2.341l1.904,1.395l15.86,11.621l9.457,6.929l10.435,9.788l-4.265-14.245&#10;&#9;&#9;&#9;&#9;&#9;l-12.001-37.109l-16.189-50.057l-4.87-13.056L325.587,185.781z"/>
			</g>
			<g>
				<path style="fill:#C1B900;" d="M377.106,194.706l0.11-0.455l-0.027-0.42c-0.024-0.212-0.026-0.378-0.006-0.536&#10;&#9;&#9;&#9;&#9;&#9;c3.768-28.601,9.073-68.751,9.816-74.112l0.281-0.291l-9.126-45.651l-47.437,98.126l0.366,0.842l0.088,0.191l15.753,48.687&#10;&#9;&#9;&#9;&#9;&#9;l18.412,56.932L377.106,194.706z"/>
				<path style="fill:#C1B900;" d="M377.362,79.478c2.584,12.927,5.168,25.853,7.752,38.779c-0.057,0.058-6.817,51.274-9.913,74.776&#10;&#9;&#9;&#9;&#9;&#9;c-0.048,0.368-0.036,0.707,0.003,1.032c-0.029,0.118-0.06,0.234-0.078,0.362c-3.518,24.907-7.037,49.814-10.555,74.721&#10;&#9;&#9;&#9;&#9;&#9;c-10.495-32.451-20.99-64.902-31.485-97.353c-0.046-0.141-0.112-0.255-0.167-0.383&#10;&#9;&#9;&#9;&#9;&#9;C347.733,140.767,362.548,110.122,377.362,79.478 M378.948,67.006l-5.187,10.73l-21.421,44.31l-23.023,47.624l-0.799,1.652&#10;&#9;&#9;&#9;&#9;&#9;l0.731,1.683c0.025,0.059,0.052,0.116,0.082,0.18l15.691,48.516l15.742,48.677l5.079,15.41l2.688-16.082l5.277-37.361&#10;&#9;&#9;&#9;&#9;&#9;l5.264-37.269l0.001-0.005l0.011-0.046l0.001-0.004l0.175-0.709l-0.087-0.725c-0.002-0.018-0.005-0.036-0.007-0.036&#10;&#9;&#9;&#9;&#9;&#9;c0,0-0.001,0.001-0.001,0.002c3.635-27.594,8.728-66.136,9.725-73.447l0.557-0.574l-0.412-2.061l-3.618-18.097l-4.135-20.683&#10;&#9;&#9;&#9;&#9;&#9;L378.948,67.006L378.948,67.006z"/>
			</g>
			<g>
				<path style="fill:#A29200;" d="M392.934,113.079c20.867-21.476,52.951-54.182,56.295-57.185l0.407-0.129l21.433-38.93&#10;&#9;&#9;&#9;&#9;&#9;l-90.173,49.766l-0.126,1.011l-0.068,0.376l0.085,0.311l9.497,47.508L392.934,113.079z"/>
				<path style="fill:#A29200;" d="M465.982,21.927l-17.713,32.173c-0.761,0.241-38.506,38.789-56.77,57.586&#10;&#9;&#9;&#9;&#9;&#9;c-2.917-14.593-5.834-29.186-8.752-43.779c0.002-0.016,0.004-0.031,0.006-0.047C410.497,52.549,438.239,37.238,465.982,21.927&#10;&#9;&#9;&#9;&#9;&#9; M476.154,11.744l-12.105,6.681l-45.112,24.897l-38.116,21.036l-1.764,0.967l-0.266,1.999l-0.101,0.687l0.136,0.681&#10;&#9;&#9;&#9;&#9;&#9;l4.439,22.207l4.312,21.572l1.491,7.458l5.3-5.455c19.704-20.279,51.294-52.488,55.891-56.808l0.743-0.235l0.772-1.402&#10;&#9;&#9;&#9;&#9;&#9;l17.713-32.173L476.154,11.744L476.154,11.744z"/>
			</g>
		</g>
	</g>
</g>
<path style="fill:#FADF8D;" d="M568.545,744.89c0.54,0,1.037,0.471,1.037,0.471l-8.905,19.021c-0.976,0-3.316,0.139-3.888,0.139&#10;&#9;c-0.539,0-1.037-0.471-1.037-0.471l-3.045-19.021c1.847,0,4.156-0.139,4.848-0.139c0.542,0,1.037,0.471,1.037,0.471l0.932,9.306&#10;&#9;c0.08,0.802,0.086,1.914,0.054,3.086c0.3-1.279,0.629-2.49,0.951-3.308l3.702-9.418c1.642,0,3.68-0.137,4.313-0.137H568.545z&#10;&#9; M577.722,754.273c0,2.071-1.156,3.441-4.037,4.034l-3.022,0.624c0.232,1.303,1.051,1.94,2.41,1.94c1.665,0,2.779-1.257,2.779-1.257&#10;&#9;s0.85,0.474,0.85,1.446c0,1.726-2.646,3.598-5.725,3.598c-3.123,0-5.161-1.974-5.161-5.306c0-3.85,2.728-9.072,7.582-9.072&#10;&#9;C576.056,750.28,577.722,751.854,577.722,754.273L577.722,754.273z M572.611,756.264c0.645-0.203,0.838-0.735,0.838-1.344&#10;&#9;c0-0.573-0.185-1.43-0.851-1.43c-1.198,0-1.726,1.935-1.917,3.385L572.611,756.264z M585.859,750.28c2.449,0,4.29,1.298,4.29,2.983&#10;&#9;c0,2.107-2.552,2.878-2.552,2.878s-0.748-2.302-2.464-2.302c-1.162,0-1.831,1.176-1.831,3.683c0,2.309,0.607,3.349,2.102,3.349&#10;&#9;c1.533,0,2.477-1.044,2.477-1.044s0.851,0.473,0.851,1.419c0,1.651-2.542,3.412-5.501,3.412c-3.151,0-5.093-1.974-5.093-5.254&#10;&#9;c0-3.901,2.789-9.124,7.724-9.124H585.859z M597.628,747.206c0.59,0,0.983,0.45,0.983,0.45l-0.461,2.901h3.073l-0.693,2.212&#10;&#9;c-0.225,0.712-0.578,1.106-1.299,1.106h-1.605l-0.896,5.652c-0.146,0.914,0.054,1.337,0.676,1.344&#10;&#9;c0.565,0.004,1.123-0.345,1.123-0.345s0.857,0.477,0.857,1.374c0,1.384-1.974,2.758-4.471,2.758c-2.649,0-3.718-1.621-3.268-4.457&#10;&#9;l1-6.326h-1.667l0.726-2.308c0.187-0.592,0.675-1.01,1.272-1.01h0.811l0.972-2.671C595.962,747.592,597.082,747.206,597.628,747.206&#10;&#9;L597.628,747.206z M612.549,754.273c0,2.071-1.155,3.441-4.036,4.034l-3.023,0.624c0.233,1.303,1.052,1.94,2.409,1.94&#10;&#9;c1.665,0,2.78-1.257,2.78-1.257s0.851,0.474,0.851,1.446c0,1.726-2.646,3.598-5.725,3.598c-3.124,0-5.161-1.974-5.161-5.306&#10;&#9;c0-3.85,2.727-9.072,7.582-9.072c2.658,0,4.324,1.574,4.324,3.993H612.549z M607.44,756.264c0.644-0.203,0.838-0.735,0.838-1.344&#10;&#9;c0-0.573-0.187-1.43-0.851-1.43c-1.198,0-1.728,1.935-1.917,3.385L607.44,756.264z M624.878,754.273&#10;&#9;c0,2.071-1.155,3.441-4.035,4.034l-3.023,0.624c0.232,1.303,1.051,1.94,2.409,1.94c1.667,0,2.779-1.257,2.779-1.257&#10;&#9;s0.852,0.474,0.852,1.446c0,1.726-2.646,3.598-5.725,3.598c-3.124,0-5.162-1.974-5.162-5.306c0-3.85,2.729-9.072,7.582-9.072&#10;&#9;c2.659,0,4.325,1.574,4.325,3.993H624.878z M619.769,756.264c0.645-0.203,0.838-0.735,0.838-1.344c0-0.573-0.188-1.43-0.851-1.43&#10;&#9;c-1.198,0-1.727,1.935-1.918,3.385L619.769,756.264z M634.965,759.438c0,0,1.039,0.96,1.039,2.548c0,2.118-1.794,2.673-3.297,2.673&#10;&#9;c-1.959,0-3.384-0.934-4.874-1.438c-0.415,0.479-0.822,0.959-1.212,1.438c0,0-2.208-0.056-2.208-1.56&#10;&#9;c0-1.834,3.057-4.979,6.351-8.544c-0.38-0.068-0.744-0.115-1.073-0.115c-1.872,0-2.598,0.935-2.598,0.935s-0.963-1.107-0.882-2.549&#10;&#9;c0.109-1.998,2.01-2.546,3.502-2.546c1.583,0,2.744,0.611,3.887,1.112l0.928-1.112c0,0,2.228,0.068,2.228,1.58&#10;&#9;c0,1.769-2.959,4.858-6.157,8.307c0.677,0.189,1.307,0.343,1.932,0.343C634.188,760.51,634.965,759.438,634.965,759.438&#10;&#9;L634.965,759.438z M649.299,763.438c-0.795,4.842-4.113,7.303-8.314,7.303c-2.683,0-4.685-1.409-4.685-3.042&#10;&#9;c0-1.077,0.896-1.576,0.896-1.576s0.912,0.83,2.71,0.83c1.686,0,3.973-0.719,4.374-3.264l0.315-1.982&#10;&#9;c-1.132,1.629-2.634,2.95-4.53,2.95c-2.132,0-3.081-1.744-2.519-5.288l0.606-3.836c0.373-2.35,0.476-4.267,0.476-4.267&#10;&#9;c1.517-0.28,3.517-0.987,4.217-0.987c0.542,0,1.045,0.452,1.045,0.452l-0.76,4.802l-0.702,4.43&#10;&#9;c-0.064,0.408,0.013,0.638,0.383,0.638c1.767,0,2.763-5.067,2.763-5.067c0.371-2.35,0.475-4.267,0.475-4.267&#10;&#9;c1.515-0.28,3.516-0.987,4.216-0.987c0.543,0,1.046,0.452,1.046,0.452l-0.761,4.802L649.299,763.438z M444.552,751.057h4.755&#10;&#9;c1.072,0,1.89,0.082,2.452,0.246c0.756,0.223,1.403,0.618,1.942,1.187c0.539,0.568,0.949,1.265,1.23,2.087&#10;&#9;c0.281,0.824,0.422,1.839,0.422,3.046c0,1.061-0.132,1.975-0.395,2.742c-0.322,0.938-0.782,1.696-1.38,2.276&#10;&#9;c-0.451,0.439-1.061,0.782-1.828,1.028c-0.574,0.182-1.342,0.273-2.303,0.273h-4.896V751.057z M447.153,753.236v8.534h1.942&#10;&#9;c0.727,0,1.251-0.041,1.573-0.123c0.422-0.106,0.772-0.284,1.05-0.536c0.278-0.252,0.505-0.666,0.681-1.244&#10;&#9;c0.176-0.576,0.264-1.363,0.264-2.359s-0.088-1.761-0.264-2.294c-0.176-0.533-0.422-0.949-0.738-1.248&#10;&#9;c-0.316-0.299-0.718-0.501-1.204-0.606c-0.363-0.082-1.075-0.123-2.136-0.123H447.153z M462.587,760.971l2.461,0.413&#10;&#9;c-0.316,0.902-0.816,1.59-1.499,2.062c-0.683,0.472-1.537,0.707-2.562,0.707c-1.623,0-2.824-0.53-3.604-1.591&#10;&#9;c-0.615-0.85-0.923-1.922-0.923-3.217c0-1.547,0.404-2.758,1.213-3.634c0.809-0.876,1.831-1.314,3.067-1.314&#10;&#9;c1.389,0,2.484,0.459,3.287,1.375c0.803,0.918,1.187,2.322,1.151,4.215h-6.188c0.018,0.732,0.217,1.303,0.598,1.709&#10;&#9;c0.381,0.408,0.855,0.611,1.424,0.611c0.387,0,0.712-0.105,0.975-0.316C462.253,761.779,462.453,761.44,462.587,760.971z&#10;&#9; M462.728,758.475c-0.018-0.715-0.202-1.258-0.554-1.631c-0.352-0.371-0.779-0.558-1.283-0.558c-0.539,0-0.984,0.196-1.336,0.589&#10;&#9;c-0.352,0.393-0.524,0.926-0.519,1.6H462.728z M465.962,761.278l2.478-0.378c0.105,0.481,0.319,0.846,0.642,1.094&#10;&#9;c0.322,0.25,0.773,0.374,1.354,0.374c0.639,0,1.119-0.117,1.441-0.352c0.217-0.164,0.325-0.384,0.325-0.659&#10;&#9;c0-0.188-0.059-0.343-0.176-0.466c-0.123-0.117-0.398-0.226-0.826-0.325c-1.992-0.439-3.255-0.841-3.788-1.204&#10;&#9;c-0.738-0.504-1.107-1.204-1.107-2.101c0-0.809,0.319-1.488,0.958-2.039c0.639-0.551,1.629-0.826,2.971-0.826&#10;&#9;c1.277,0,2.227,0.208,2.848,0.624s1.049,1.031,1.283,1.846l-2.329,0.431c-0.1-0.363-0.288-0.642-0.567-0.835&#10;&#9;c-0.278-0.193-0.675-0.29-1.191-0.29c-0.65,0-1.116,0.091-1.397,0.272c-0.188,0.129-0.281,0.296-0.281,0.501&#10;&#9;c0,0.176,0.082,0.325,0.246,0.448c0.223,0.164,0.992,0.396,2.307,0.694c1.315,0.299,2.234,0.665,2.755,1.099&#10;&#9;c0.516,0.439,0.773,1.052,0.773,1.837c0,0.856-0.357,1.591-1.072,2.206c-0.715,0.615-1.772,0.923-3.173,0.923&#10;&#9;c-1.271,0-2.278-0.258-3.019-0.773C466.676,762.863,466.191,762.163,465.962,761.278z M476.483,753.342v-2.285h2.47v2.285H476.483z&#10;&#9; M476.483,763.941v-9.334h2.47v9.334H476.483z M480.896,764.557l2.821,0.343c0.047,0.328,0.155,0.554,0.325,0.677&#10;&#9;c0.234,0.176,0.604,0.264,1.107,0.264c0.644,0,1.128-0.097,1.45-0.29c0.217-0.129,0.381-0.337,0.492-0.624&#10;&#9;c0.076-0.205,0.114-0.583,0.114-1.134v-1.362c-0.738,1.008-1.67,1.512-2.795,1.512c-1.254,0-2.247-0.53-2.979-1.591&#10;&#9;c-0.574-0.838-0.861-1.881-0.861-3.129c0-1.564,0.376-2.76,1.129-3.586c0.753-0.826,1.689-1.239,2.808-1.239&#10;&#9;c1.154,0,2.106,0.507,2.856,1.521v-1.31h2.312v8.376c0,1.102-0.091,1.925-0.273,2.47c-0.182,0.545-0.436,0.973-0.765,1.283&#10;&#9;c-0.328,0.311-0.766,0.554-1.314,0.729c-0.548,0.176-1.241,0.264-2.079,0.264c-1.582,0-2.704-0.271-3.366-0.813&#10;&#9;c-0.662-0.542-0.993-1.229-0.993-2.06C480.887,764.773,480.89,764.674,480.896,764.557z M483.102,759.081&#10;&#9;c0,0.99,0.192,1.716,0.576,2.175c0.384,0.461,0.857,0.69,1.42,0.69c0.603,0,1.113-0.235,1.529-0.708&#10;&#9;c0.416-0.471,0.624-1.17,0.624-2.096c0-0.967-0.199-1.685-0.598-2.153c-0.398-0.469-0.902-0.703-1.512-0.703&#10;&#9;c-0.592,0-1.08,0.231-1.463,0.691C483.294,757.437,483.102,758.138,483.102,759.081z M500.25,763.941h-2.47v-4.764&#10;&#9;c0-1.008-0.053-1.659-0.158-1.955c-0.105-0.296-0.277-0.526-0.514-0.69c-0.237-0.164-0.523-0.246-0.857-0.246&#10;&#9;c-0.428,0-0.812,0.117-1.151,0.352c-0.34,0.234-0.573,0.545-0.699,0.932c-0.126,0.387-0.189,1.102-0.189,2.145v4.227h-2.47v-9.334&#10;&#9;h2.294v1.371c0.814-1.055,1.84-1.582,3.076-1.582c0.545,0,1.043,0.099,1.494,0.295c0.451,0.196,0.793,0.446,1.024,0.751&#10;&#9;c0.231,0.305,0.392,0.65,0.483,1.037c0.091,0.387,0.136,0.94,0.136,1.661V763.941z M507.8,760.971l2.461,0.413&#10;&#9;c-0.316,0.902-0.816,1.59-1.499,2.062c-0.683,0.472-1.537,0.707-2.562,0.707c-1.623,0-2.824-0.53-3.604-1.591&#10;&#9;c-0.615-0.85-0.923-1.922-0.923-3.217c0-1.547,0.404-2.758,1.213-3.634c0.809-0.876,1.831-1.314,3.067-1.314&#10;&#9;c1.389,0,2.484,0.459,3.287,1.375c0.803,0.918,1.186,2.322,1.151,4.215h-6.188c0.018,0.732,0.217,1.303,0.598,1.709&#10;&#9;c0.381,0.408,0.855,0.611,1.424,0.611c0.387,0,0.712-0.105,0.975-0.316C507.466,761.779,507.665,761.44,507.8,760.971z&#10;&#9; M507.94,758.475c-0.018-0.715-0.202-1.258-0.554-1.631c-0.352-0.371-0.779-0.558-1.283-0.558c-0.539,0-0.984,0.196-1.336,0.589&#10;&#9;c-0.352,0.393-0.524,0.926-0.519,1.6H507.94z M520.606,763.941h-2.294v-1.371c-0.381,0.533-0.831,0.931-1.349,1.191&#10;&#9;c-0.519,0.26-1.042,0.391-1.569,0.391c-1.072,0-1.991-0.432-2.755-1.297c-0.765-0.863-1.147-2.069-1.147-3.616&#10;&#9;c0-1.582,0.372-2.784,1.116-3.608c0.744-0.822,1.685-1.234,2.821-1.234c1.043,0,1.945,0.434,2.707,1.301v-4.641h2.47V763.941z&#10;&#9; M514.014,759.072c0,0.996,0.138,1.717,0.413,2.162c0.398,0.645,0.955,0.967,1.67,0.967c0.568,0,1.052-0.242,1.45-0.725&#10;&#9;c0.398-0.484,0.598-1.206,0.598-2.167c0-1.072-0.193-1.844-0.58-2.315c-0.387-0.472-0.882-0.708-1.485-0.708&#10;&#9;c-0.586,0-1.077,0.233-1.472,0.698C514.212,757.451,514.014,758.146,514.014,759.072z M527.216,763.941v-12.885h2.47v4.641&#10;&#9;c0.762-0.867,1.664-1.301,2.707-1.301c1.137,0,2.077,0.412,2.821,1.234c0.744,0.824,1.116,2.006,1.116,3.547&#10;&#9;c0,1.594-0.379,2.821-1.138,3.683c-0.759,0.861-1.68,1.292-2.764,1.292c-0.533,0-1.059-0.134-1.578-0.4&#10;&#9;c-0.519-0.266-0.965-0.66-1.34-1.182v1.371H527.216z M529.668,759.072c0,0.967,0.152,1.682,0.457,2.144&#10;&#9;c0.428,0.656,0.996,0.984,1.705,0.984c0.545,0,1.009-0.232,1.393-0.699c0.384-0.465,0.576-1.199,0.576-2.201&#10;&#9;c0-1.066-0.193-1.835-0.58-2.307c-0.387-0.472-0.882-0.708-1.485-0.708c-0.592,0-1.084,0.231-1.477,0.691&#10;&#9;C529.864,757.437,529.668,758.135,529.668,759.072z M536.788,754.607h2.628l2.232,6.627l2.18-6.627h2.558l-3.296,8.982l-0.589,1.626&#10;&#9;c-0.217,0.545-0.423,0.961-0.62,1.248c-0.196,0.287-0.422,0.519-0.677,0.698c-0.255,0.179-0.568,0.318-0.94,0.418&#10;&#9;c-0.372,0.1-0.792,0.149-1.261,0.149c-0.475,0-0.94-0.05-1.397-0.149l-0.22-1.934c0.387,0.076,0.735,0.114,1.046,0.114&#10;&#9;c0.574,0,0.999-0.169,1.274-0.505c0.275-0.338,0.486-0.767,0.633-1.288L536.788,754.607z"/>
</svg>