<?xml version="1.0" encoding="utf-8"?>
<!-- Generator: Adobe Illustrator 23.0.2, SVG Export Plug-In . SVG Version: 6.00 Build 0)  -->
<svg version="1.1" id="Layer_1" xmlns="http://www.w3.org/2000/svg" xmlns:xlink="http://www.w3.org/1999/xlink" x="0px" y="0px"
	 viewBox="0 0 200 200" style="enable-background:new 0 0 200 200;" xml:space="preserve">
<style type="text/css">
	.st0{fill:url(#SVGID_1_);}
	.st1{fill:url(#SVGID_2_);}
	.st2{fill:url(#SVGID_3_);}
	.st3{fill:url(#SVGID_4_);}
	.st4{fill:url(#SVGID_5_);}
	.st5{fill:url(#SVGID_6_);}
	.st6{fill:url(#SVGID_7_);}
	.st7{fill:url(#SVGID_8_);}
	.st8{fill:url(#SVGID_9_);}
	.st9{fill:url(#SVGID_10_);}
	.st10{opacity:0.5;}
	.st11{fill:url(#SVGID_11_);}
	.st12{fill:url(#SVGID_12_);}
	.st13{fill:url(#SVGID_13_);}
	.st14{fill:url(#SVGID_14_);}
	.st15{fill:url(#SVGID_15_);}
	.st16{fill:url(#SVGID_16_);}
	.st17{fill:url(#SVGID_17_);}
	.st18{fill:url(#SVGID_18_);}
	.st19{fill:url(#SVGID_19_);}
	.st20{fill:url(#SVGID_20_);}
	.st21{fill:none;}
</style>
<g transform="matrix(0.9999999999999999, 0, 0, 0.9999999999999999, 3.469388320613916, 36.42857736644616)">
	<g>
		
			<linearGradient id="SVGID_1_" gradientUnits="userSpaceOnUse" x1="93.0355" y1="160.7537" x2="93.0355" y2="189.7571" gradientTransform="matrix(1 0 0 -1 3.4694 165.5714)">
			<stop  offset="0" style="stop-color:#DFA7CC"/>
			<stop  offset="1" style="stop-color:#A64198"/>
		</linearGradient>
		<path class="st0" d="M96.5-28.49L96.5-28.49L96.5-28.49L96.5-28.49L96.5-28.49L73.27,2.94H96.5l0,0h23.24L96.5-28.49z"/>
		
			<linearGradient id="SVGID_2_" gradientUnits="userSpaceOnUse" x1="71.542" y1="155.3325" x2="71.9175" y2="186.1259" gradientTransform="matrix(1 0 0 -1 3.4694 165.5714)">
			<stop  offset="0" style="stop-color:#2A286E"/>
			<stop  offset="1" style="stop-color:#140E1F"/>
		</linearGradient>
		<path class="st1" d="M54.17-4.04l19.1,6.98L96.5-28.49L54.17-4.04z"/>
		
			<linearGradient id="SVGID_3_" gradientUnits="userSpaceOnUse" x1="100.658" y1="197.4955" x2="131.0758" y2="159.567" gradientTransform="matrix(1 0 0 -1 3.4694 165.5714)">
			<stop  offset="0" style="stop-color:#460733"/>
			<stop  offset="1" style="stop-color:#630813"/>
		</linearGradient>
		<path class="st2" d="M138.84-4.04l-19.1,6.98L96.5-28.49L138.84-4.04z"/>
		
			<linearGradient id="SVGID_4_" gradientUnits="userSpaceOnUse" x1="107.6809" y1="32.953" x2="120.8245" y2="14.9276" gradientTransform="matrix(1 0 0 -1 3.4694 165.5714)">
			<stop  offset="0" style="stop-color:#2C763A"/>
			<stop  offset="1" style="stop-color:#292A14"/>
		</linearGradient>
		<path class="st3" d="M138.84,129.34L96.5,139.63v14.15L138.84,129.34z"/>
		
			<linearGradient id="SVGID_5_" gradientUnits="userSpaceOnUse" x1="85.524" y1="24.0123" x2="49.8487" y2="24.0123" gradientTransform="matrix(1 0 0 -1 3.4694 165.5714)">
			<stop  offset="0" style="stop-color:#55B948"/>
			<stop  offset="1" style="stop-color:#026674"/>
		</linearGradient>
		<path class="st4" d="M54.17,129.34l42.33,10.29v14.15L54.17,129.34z"/>
		
			<linearGradient id="SVGID_6_" gradientUnits="userSpaceOnUse" x1="93.0355" y1="25.9401" x2="93.0355" y2="162.6308" gradientTransform="matrix(1 0 0 -1 3.4694 165.5714)">
			<stop  offset="0" style="stop-color:#D7E36D"/>
			<stop  offset="1" style="stop-color:#E4D7EA"/>
		</linearGradient>
		<path class="st5" d="M73.27,2.94L96.5,139.63L119.74,2.94H73.27z"/>
		
			<linearGradient id="SVGID_7_" gradientUnits="userSpaceOnUse" x1="111.7331" y1="66.1194" x2="41.5092" y2="111.5585" gradientTransform="matrix(1 0 0 -1 3.4694 165.5714)">
			<stop  offset="0" style="stop-color:#85C441"/>
			<stop  offset="1" style="stop-color:#026674"/>
		</linearGradient>
		<path class="st6" d="M54.17,129.34l19.1-126.4L96.5,139.63L54.17,129.34z"/>
		
			<linearGradient id="SVGID_8_" gradientUnits="userSpaceOnUse" x1="89.3769" y1="123.6445" x2="68.3472" y2="112.3786" gradientTransform="matrix(1 0 0 -1 3.4694 165.5714)">
			<stop  offset="0" style="stop-color:#5D79BC"/>
			<stop  offset="1" style="stop-color:#0E5656"/>
		</linearGradient>
		<path class="st7" d="M54.17-4.04l19.1,6.98l-19.1,126.4V-4.04z"/>
		
			<linearGradient id="SVGID_9_" gradientUnits="userSpaceOnUse" x1="94.2535" y1="30.7117" x2="130.3044" y2="109.1973" gradientTransform="matrix(1 0 0 -1 3.4694 165.5714)">
			<stop  offset="0" style="stop-color:#D2D028"/>
			<stop  offset="1" style="stop-color:#DD3326"/>
		</linearGradient>
		<path class="st8" d="M138.84,129.34l-19.1-126.4L96.5,139.63L138.84,129.34z"/>
		
			<linearGradient id="SVGID_10_" gradientUnits="userSpaceOnUse" x1="143.7689" y1="102.354" x2="110.5346" y2="104.6072" gradientTransform="matrix(1 0 0 -1 3.4694 165.5714)">
			<stop  offset="0" style="stop-color:#34130E"/>
			<stop  offset="1" style="stop-color:#9C1C1F"/>
		</linearGradient>
		<path class="st9" d="M138.84-4.04l-19.1,6.98l19.1,126.4V-4.04z"/>
	</g>
	<g class="st10">
		
			<linearGradient id="SVGID_11_" gradientUnits="userSpaceOnUse" x1="539.0353" y1="-45.9377" x2="539.0353" y2="-16.9343" gradientTransform="matrix(1 0 0 1 -442.5305 166.4185)">
			<stop  offset="0" style="stop-color:#DFA7CC"/>
			<stop  offset="1" style="stop-color:#A64198"/>
		</linearGradient>
		<path class="st11" d="M96.5,153.78L96.5,153.78L96.5,153.78L96.5,153.78L96.5,153.78l-23.23-31.42H96.5l0,0h23.24L96.5,153.78z"/>
		
			<linearGradient id="SVGID_12_" gradientUnits="userSpaceOnUse" x1="517.542" y1="-51.359" x2="517.9175" y2="-20.5655" gradientTransform="matrix(1 0 0 1 -442.5305 166.4185)">
			<stop  offset="0" style="stop-color:#2A286E"/>
			<stop  offset="1" style="stop-color:#140E1F"/>
		</linearGradient>
		<path class="st12" d="M54.17,129.34l19.1-6.98l23.23,31.42L54.17,129.34z"/>
		
			<linearGradient id="SVGID_13_" gradientUnits="userSpaceOnUse" x1="546.6579" y1="-9.196" x2="577.0757" y2="-47.1244" gradientTransform="matrix(1 0 0 1 -442.5305 166.4185)">
			<stop  offset="0" style="stop-color:#460733"/>
			<stop  offset="1" style="stop-color:#630813"/>
		</linearGradient>
		<path class="st13" d="M138.84,129.34l-19.1-6.98L96.5,153.78L138.84,129.34z"/>
		
			<linearGradient id="SVGID_14_" gradientUnits="userSpaceOnUse" x1="553.6796" y1="-173.7394" x2="566.8231" y2="-191.7647" gradientTransform="matrix(1 0 0 1 -442.5305 166.4185)">
			<stop  offset="0" style="stop-color:#2C763A"/>
			<stop  offset="1" style="stop-color:#292A14"/>
		</linearGradient>
		<path class="st14" d="M138.84-4.04L96.5-14.34v-14.15L138.84-4.04z"/>
		
			<linearGradient id="SVGID_15_" gradientUnits="userSpaceOnUse" x1="531.5239" y1="-182.6819" x2="495.8486" y2="-182.6819" gradientTransform="matrix(1 0 0 1 -442.5305 166.4185)">
			<stop  offset="0" style="stop-color:#55B948"/>
			<stop  offset="1" style="stop-color:#026674"/>
		</linearGradient>
		<path class="st15" d="M54.17-4.04L96.5-14.34v-14.15L54.17-4.04z"/>
		
			<linearGradient id="SVGID_16_" gradientUnits="userSpaceOnUse" x1="539.0353" y1="-180.754" x2="539.0353" y2="-44.0579" gradientTransform="matrix(1 0 0 1 -442.5305 166.4185)">
			<stop  offset="0" style="stop-color:#D7E36D"/>
			<stop  offset="1" style="stop-color:#E4D7EA"/>
		</linearGradient>
		<path class="st16" d="M73.27,122.36L96.5-14.34l23.24,136.7H73.27z"/>
		
			<linearGradient id="SVGID_17_" gradientUnits="userSpaceOnUse" x1="557.733" y1="-140.5721" x2="487.5091" y2="-95.133" gradientTransform="matrix(1 0 0 1 -442.5305 166.4185)">
			<stop  offset="0" style="stop-color:#85C441"/>
			<stop  offset="1" style="stop-color:#026674"/>
		</linearGradient>
		<path class="st17" d="M54.17-4.04l19.1,126.4L96.5-14.34L54.17-4.04z"/>
		
			<linearGradient id="SVGID_18_" gradientUnits="userSpaceOnUse" x1="535.3779" y1="-83.049" x2="514.3483" y2="-94.3149" gradientTransform="matrix(1 0 0 1 -442.5305 166.4185)">
			<stop  offset="0" style="stop-color:#5D79BC"/>
			<stop  offset="1" style="stop-color:#0E5656"/>
		</linearGradient>
		<path class="st18" d="M54.17,129.34l19.1-6.98L54.17-4.04V129.34z"/>
		
			<linearGradient id="SVGID_19_" gradientUnits="userSpaceOnUse" x1="540.2535" y1="-175.9798" x2="576.3043" y2="-97.4941" gradientTransform="matrix(1 0 0 1 -442.5305 166.4185)">
			<stop  offset="0" style="stop-color:#D2D028"/>
			<stop  offset="1" style="stop-color:#DD3326"/>
		</linearGradient>
		<path class="st19" d="M138.84-4.04l-19.1,126.4L96.5-14.34L138.84-4.04z"/>
		
			<linearGradient id="SVGID_20_" gradientUnits="userSpaceOnUse" x1="589.7686" y1="-104.3402" x2="556.5343" y2="-102.087" gradientTransform="matrix(1 0 0 1 -442.5305 166.4185)">
			<stop  offset="0" style="stop-color:#34130E"/>
			<stop  offset="1" style="stop-color:#9C1C1F"/>
		</linearGradient>
		<path class="st20" d="M138.84,129.34l-19.1-6.98l19.1-126.4V129.34z"/>
	</g>
	<g>
		<path class="st21" d="M96.5-28.49L96.5-28.49L96.5-28.49L96.5-28.49L96.5-28.49L73.27,2.94H96.5l0,0h23.24L96.5-28.49z"/>
		<path class="st21" d="M54.17-4.04l19.1,6.98L96.5-28.49L54.17-4.04z"/>
		<path class="st21" d="M138.84-4.04l-19.1,6.98L96.5-28.49L138.84-4.04z"/>
		<path class="st21" d="M138.84,129.34L96.5,139.63v14.15L138.84,129.34z"/>
		<path class="st21" d="M54.17,129.34l42.33,10.29v14.15L54.17,129.34z"/>
		<path class="st21" d="M73.27,2.94L96.5,139.63L119.74,2.94H73.27z"/>
		<path class="st21" d="M54.17,129.34l19.1-126.4L96.5,139.63L54.17,129.34z"/>
		<path class="st21" d="M54.17-4.04l19.1,6.98l-19.1,126.4V-4.04z"/>
		<path class="st21" d="M138.84,129.34l-19.1-126.4L96.5,139.63L138.84,129.34z"/>
		<path class="st21" d="M138.84-4.04l-19.1,6.98l19.1,126.4V-4.04z"/>
	</g>
</g>
</svg>
